<svg xmlns="http://www.w3.org/2000/svg" viewBox="0 0 2520 1720" width="2520" height="1720" role="img" aria-label="핵심 흐름에 서브넷(public·app·data), AZ별 NAT, IGW, 리전 관리형 서비스(WAF·ACM·SSM·Secrets Manager·CloudTrail·S3 Object Lock), GitHub Actions·Docker Hub·SSM 배포 경로를 더한 상세 구성도. Redis(ElastiCache)와 RDS는 2a에 Primary, 2c에 Replica·Standby를 둔 Multi-AZ이고, AWS와 온프레미스는 Site-to-Site VPN으로 연결된다.">
<title>CoreBank 인프라 — 상세 구성</title>
<defs>
<marker id="m-flow" viewBox="0 0 10 10" refX="9" refY="5" markerWidth="7" markerHeight="7" orient="auto-start-reverse"><path d="M0,0 L10,5 L0,10 z" fill="#DD344C"/></marker>
<marker id="m-data" viewBox="0 0 10 10" refX="9" refY="5" markerWidth="7" markerHeight="7" orient="auto-start-reverse"><path d="M0,0 L10,5 L0,10 z" fill="#C925D1"/></marker>
<marker id="m-ops" viewBox="0 0 10 10" refX="9" refY="5" markerWidth="7" markerHeight="7" orient="auto-start-reverse"><path d="M0,0 L10,5 L0,10 z" fill="#0969da"/></marker>
<marker id="m-neutral" viewBox="0 0 10 10" refX="9" refY="5" markerWidth="7" markerHeight="7" orient="auto-start-reverse"><path d="M0,0 L10,5 L0,10 z" fill="#6e7781"/></marker>
<marker id="m-sec" viewBox="0 0 10 10" refX="9" refY="5" markerWidth="7" markerHeight="7" orient="auto-start-reverse"><path d="M0,0 L10,5 L0,10 z" fill="#bf3989"/></marker>
</defs>
<rect width="2520" height="1720" fill="#ffffff"/>
<text x="30" y="78.2" font-family="ui-sans-serif,-apple-system,'Segoe UI',Roboto,'Helvetica Neue',Arial,'Apple SD Gothic Neo','Noto Sans KR','Malgun Gothic',sans-serif" font-size="51.0" font-weight="800" text-anchor="start" fill="#1f2328">CoreBank 인프라 — 상세 구성</text>
<rect x="16" y="400" width="2488" height="210" rx="10" fill="#eef6ff"/>
<text x="32" y="444.2" font-family="ui-sans-serif,-apple-system,'Segoe UI',Roboto,'Helvetica Neue',Arial,'Apple SD Gothic Neo','Noto Sans KR','Malgun Gothic',sans-serif" font-size="22.95" font-weight="700" text-anchor="start" fill="#1f2328">Presentation Tier</text>
<text x="32" y="478.2" font-family="ui-sans-serif,-apple-system,'Segoe UI',Roboto,'Helvetica Neue',Arial,'Apple SD Gothic Neo','Noto Sans KR','Malgun Gothic',sans-serif" font-size="19.55" font-weight="400" text-anchor="start" fill="#59636e">Cloudflare Pages · React</text>
<rect x="16" y="625" width="2488" height="640" rx="10" fill="#effaf2"/>
<text x="32" y="669.2" font-family="ui-sans-serif,-apple-system,'Segoe UI',Roboto,'Helvetica Neue',Arial,'Apple SD Gothic Neo','Noto Sans KR','Malgun Gothic',sans-serif" font-size="22.95" font-weight="700" text-anchor="start" fill="#1f2328">Application Tier</text>
<text x="32" y="703.2" font-family="ui-sans-serif,-apple-system,'Segoe UI',Roboto,'Helvetica Neue',Arial,'Apple SD Gothic Neo','Noto Sans KR','Malgun Gothic',sans-serif" font-size="19.55" font-weight="400" text-anchor="start" fill="#59636e">ALB → WAS · 정보계 API</text>
<text x="32" y="733.8" font-family="ui-sans-serif,-apple-system,'Segoe UI',Roboto,'Helvetica Neue',Arial,'Apple SD Gothic Neo','Noto Sans KR','Malgun Gothic',sans-serif" font-size="19.55" font-weight="400" text-anchor="start" fill="#59636e">대외기관 · 모니터링</text>
<rect x="16" y="1275" width="2488" height="430" rx="10" fill="#fff6ec"/>
<text x="32" y="1319.2" font-family="ui-sans-serif,-apple-system,'Segoe UI',Roboto,'Helvetica Neue',Arial,'Apple SD Gothic Neo','Noto Sans KR','Malgun Gothic',sans-serif" font-size="22.95" font-weight="700" text-anchor="start" fill="#1f2328">Data Tier</text>
<text x="32" y="1353.2" font-family="ui-sans-serif,-apple-system,'Segoe UI',Roboto,'Helvetica Neue',Arial,'Apple SD Gothic Neo','Noto Sans KR','Malgun Gothic',sans-serif" font-size="19.55" font-weight="400" text-anchor="start" fill="#59636e">Redis · RDS</text>
<text x="32" y="1383.8" font-family="ui-sans-serif,-apple-system,'Segoe UI',Roboto,'Helvetica Neue',Arial,'Apple SD Gothic Neo','Noto Sans KR','Malgun Gothic',sans-serif" font-size="19.55" font-weight="400" text-anchor="start" fill="#59636e">레플리카 · 마트</text>
<rect x="30" y="770" width="260" height="400" rx="4" fill="none" stroke="#0969da" stroke-width="1.6" stroke-dasharray="6 4"/>
<text x="40" y="800.6" font-family="ui-sans-serif,-apple-system,'Segoe UI',Roboto,'Helvetica Neue',Arial,'Apple SD Gothic Neo','Noto Sans KR','Malgun Gothic',sans-serif" font-size="21.25" font-weight="600" text-anchor="start" fill="#0969da">배포 (CI/CD)</text>
<rect x="310" y="635" width="1250" height="1055" rx="4" fill="none" stroke="#232F3E" stroke-width="1.6"/>
<svg x="310" y="635" width="44.199999999999996" height="44.199999999999996" viewBox="0 0 40 40" overflow="visible"><g fill="none" fill-rule="evenodd"><path fill="#242f3e" d="M0 0h40v40H0z"/><path fill="#fff" d="M32.698 23.9c.361.47-.4 2.4-.74 3.264-.105.262.117.365.35.168 1.512-1.284 1.904-3.975 1.593-4.363-.307-.386-2.95-.717-4.563.432-.249.177-.206.42.07.389.907-.112 2.93-.357 3.29.11m-.842 2.01c.518-.378.074-.941-.454-.72-3.513 1.464-7.327 2.173-10.8 2.173-5.143 0-10.127-1.39-14.156-3.695-.352-.202-.613.155-.319.414 3.733 3.316 8.67 5.309 14.147 5.309 3.91 0 8.451-1.208 11.582-3.481m-2.144-5.215a6.6 6.6 0 0 1-1.459-.161q-.714-.163-1.093-.373-.233-.128-.29-.258a.7.7 0 0 1-.059-.26v-.47q0-.29.216-.292.083.002.173.033.091.034.241.098.48.21 1.044.324.564.113 1.126.113.895 0 1.384-.308a.97.97 0 0 0 .49-.873.88.88 0 0 0-.258-.65q-.256-.258-.952-.484l-1.375-.421q-1.045-.325-1.517-.938a2.17 2.17 0 0 1-.472-1.347q0-.581.258-1.027.255-.445.676-.761.427-.314.99-.478A4.3 4.3 0 0 1 30.025 12q.315 0 .64.04a6.3 6.3 0 0 1 1.15.252q.248.082.4.162a.9.9 0 0 1 .28.227.5.5 0 0 1 .083.308v.436q0 .291-.217.29-.114.002-.364-.111c-.54-.24-1.15-.356-1.82-.356q-.815 0-1.262.258-.448.26-.448.827 0 .388.283.655.281.267 1.044.51l1.342.423q1.028.322 1.466.888.441.568.441 1.295 0 .6-.25 1.078-.248.477-.689.817a3.1 3.1 0 0 1-1.05.518q-.615.179-1.343.178m-12.165-.244q-.248.002-.365-.087-.117-.09-.199-.365l-2.222-7.157a1.8 1.8 0 0 1-.082-.371q0-.227.233-.227h.927q.265 0 .374.09.106.086.19.364l1.59 6.12 1.477-6.12q.066-.278.181-.364.116-.09.38-.09h.765q.263 0 .38.09.116.086.182.364l1.493 6.2 1.64-6.2q.082-.278.19-.364.109-.09.373-.09h.878q.233 0 .233.227a1 1 0 0 1-.016.144 2 2 0 0 1-.068.227l-2.286 7.157q-.083.275-.2.365-.116.088-.364.087h-.813q-.264.001-.38-.094-.116-.099-.182-.373l-1.476-5.96-1.457 5.96q-.067.274-.183.373-.116.095-.38.094zM9.94 19.449q.465 0 .98-.17.513-.17.893-.592.232-.259.324-.591.09-.33.09-.801v-.388a8 8 0 0 0-1.757-.211q-.945 0-1.408.373-.464.37-.465 1.07 0 .645.35.978.347.332.993.332m3.846-1.408q0 .517.107.825.11.31.307.664a.4.4 0 0 1 .066.209q0 .148-.182.276l-.597.39a.5.5 0 0 1-.248.08.4.4 0 0 1-.282-.128 2 2 0 0 1-.339-.43 6 6 0 0 1-.29-.544q-1.112 1.28-2.785 1.28-1.194.001-1.89-.664-.696-.664-.696-1.78 0-1.182.863-1.903.86-.72 2.32-.721.48 0 1.002.073t1.084.203v-.68q.001-1.052-.446-1.482-.446-.428-1.54-.428a4.5 4.5 0 0 0-1.02.12 7.5 7.5 0 0 0-1.02.315 3 3 0 0 1-.33.122.7.7 0 0 1-.15.024q-.199.001-.2-.292v-.452q.001-.228.068-.323.066-.099.265-.195a6 6 0 0 1 1.192-.421 6 6 0 0 1 1.476-.18c1.126 0 1.952.254 2.477.754q.787.753.788 2.275z"/></g></svg>
<text x="364.4" y="665.6" font-family="ui-sans-serif,-apple-system,'Segoe UI',Roboto,'Helvetica Neue',Arial,'Apple SD Gothic Neo','Noto Sans KR','Malgun Gothic',sans-serif" font-size="21.25" font-weight="600" text-anchor="start" fill="#232F3E">AWS · ap-northeast-2 (서울)</text>
<rect x="330" y="670" width="240" height="1000" rx="4" fill="none" stroke="#6e7781" stroke-width="1.6" stroke-dasharray="6 4"/>
<text x="340" y="700.6" font-family="ui-sans-serif,-apple-system,'Segoe UI',Roboto,'Helvetica Neue',Arial,'Apple SD Gothic Neo','Noto Sans KR','Malgun Gothic',sans-serif" font-size="21.25" font-weight="600" text-anchor="start" fill="#6e7781">리전 관리형 서비스</text>
<rect x="590" y="690" width="950" height="980" rx="4" fill="none" stroke="#8C4FFF" stroke-width="1.6"/>
<svg x="590" y="690" width="44.199999999999996" height="44.199999999999996" viewBox="0 0 40 40" overflow="visible"><g fill="none" fill-rule="evenodd"><path fill="#8c4fff" d="M0 0h40v40H0z"/><path fill="#fff" d="m30.97 21.03-2.943-1.264v10.49c2.545-.353 2.932-2.969 2.948-3.088zm-3.943 9.24V19.76l-3.035 1.272v6.201c.013.054.445 2.767 3.035 3.036m.306-11.723a.5.5 0 0 1 .39.001l3.945 1.692a.5.5 0 0 1 .303.46v6.533c-.183 1.447-1.357 4.063-4.527 4.063-3.075 0-4.254-2.612-4.448-3.994l-.004-6.603c0-.2.12-.383.306-.46zm5.65.637-5.461-2.406-5.53 2.327v7.128c-.001.042-.054 2.868 1.657 4.623.917.941 2.194 1.42 3.795 1.42 1.602 0 2.887-.48 3.819-1.423 1.735-1.758 1.72-4.585 1.72-4.613zM31.98 31.55c-1.127 1.144-2.654 1.725-4.536 1.725-1.884 0-3.404-.58-4.517-1.727-2.005-2.063-1.94-5.197-1.935-5.329v-7.446a.5.5 0 0 1 .305-.46l6.035-2.54a.5.5 0 0 1 .396.003l5.956 2.625c.182.08.299.26.299.457v7.375c.002.125.027 3.255-2.003 5.317m-20.988-7.314h8v1h-8c-2.811 0-4.811-2.016-4.98-5.016A4 4 0 0 1 6 19.841c0-2.509 1.318-4.223 3.817-4.979a8 8 0 0 1-.032-.647c0-2.916 1.577-5.445 4.017-6.445 3.298-1.348 7.042-.894 9.106 1.104a8.2 8.2 0 0 1 1.76 2.485c.609-.45 1.4-.66 2.349-.614 1.78.09 3.149 1.713 3.433 4.007 1.498.124 2.485.883 3.01 2.308l-.937.346c-.428-1.157-1.208-1.673-2.531-1.673a.5.5 0 0 1-.5-.47c-.138-2.338-1.406-3.463-2.526-3.519-.945-.053-1.645.22-2.08.791a.5.5 0 0 1-.472.193.5.5 0 0 1-.395-.323 7.4 7.4 0 0 0-1.807-2.814c-1.788-1.73-5.09-2.099-8.031-.895-2.063.845-3.396 3.011-3.396 5.52 0 .272.035.695.066.958a.5.5 0 0 1-.376.544C8.169 16.29 7 17.678 7 19.841c0 .101-.001.201.009.302.14 2.495 1.703 4.093 3.983 4.093"/></g></svg>
<text x="644.4" y="720.6" font-family="ui-sans-serif,-apple-system,'Segoe UI',Roboto,'Helvetica Neue',Arial,'Apple SD Gothic Neo','Noto Sans KR','Malgun Gothic',sans-serif" font-size="21.25" font-weight="600" text-anchor="start" fill="#8C4FFF">VPC 10.30.0.0/16</text>
<rect x="610" y="800" width="490" height="840" rx="4" fill="none" stroke="#007CBC" stroke-width="1.6" stroke-dasharray="6 4"/>
<text x="620" y="830.6" font-family="ui-sans-serif,-apple-system,'Segoe UI',Roboto,'Helvetica Neue',Arial,'Apple SD Gothic Neo','Noto Sans KR','Malgun Gothic',sans-serif" font-size="21.25" font-weight="600" text-anchor="start" fill="#007CBC">가용 영역 2a</text>
<rect x="1130" y="800" width="330" height="840" rx="4" fill="none" stroke="#007CBC" stroke-width="1.6" stroke-dasharray="6 4"/>
<text x="1140" y="830.6" font-family="ui-sans-serif,-apple-system,'Segoe UI',Roboto,'Helvetica Neue',Arial,'Apple SD Gothic Neo','Noto Sans KR','Malgun Gothic',sans-serif" font-size="21.25" font-weight="600" text-anchor="start" fill="#007CBC">가용 영역 2c</text>
<rect x="625" y="840" width="460" height="150" rx="4" fill="none" stroke="#248814" stroke-width="1.6"/>
<text x="635" y="870.6" font-family="ui-sans-serif,-apple-system,'Segoe UI',Roboto,'Helvetica Neue',Arial,'Apple SD Gothic Neo','Noto Sans KR','Malgun Gothic',sans-serif" font-size="21.25" font-weight="600" text-anchor="start" fill="#248814">public-2a</text>
<rect x="1145" y="840" width="300" height="150" rx="4" fill="none" stroke="#248814" stroke-width="1.6"/>
<text x="1155" y="974.7" font-family="ui-sans-serif,-apple-system,'Segoe UI',Roboto,'Helvetica Neue',Arial,'Apple SD Gothic Neo','Noto Sans KR','Malgun Gothic',sans-serif" font-size="21.25" font-weight="600" text-anchor="start" fill="#248814">public-2c</text>
<rect x="625" y="1010" width="460" height="250" rx="4" fill="none" stroke="#147EBA" stroke-width="1.6"/>
<text x="635" y="1040.6" font-family="ui-sans-serif,-apple-system,'Segoe UI',Roboto,'Helvetica Neue',Arial,'Apple SD Gothic Neo','Noto Sans KR','Malgun Gothic',sans-serif" font-size="21.25" font-weight="600" text-anchor="start" fill="#147EBA">app-2a</text>
<rect x="1145" y="1010" width="300" height="250" rx="4" fill="none" stroke="#147EBA" stroke-width="1.6"/>
<text x="1155" y="1040.6" font-family="ui-sans-serif,-apple-system,'Segoe UI',Roboto,'Helvetica Neue',Arial,'Apple SD Gothic Neo','Noto Sans KR','Malgun Gothic',sans-serif" font-size="21.25" font-weight="600" text-anchor="start" fill="#147EBA">app-2c</text>
<rect x="625" y="1280" width="460" height="345" rx="4" fill="none" stroke="#147EBA" stroke-width="1.6"/>
<text x="635" y="1310.6" font-family="ui-sans-serif,-apple-system,'Segoe UI',Roboto,'Helvetica Neue',Arial,'Apple SD Gothic Neo','Noto Sans KR','Malgun Gothic',sans-serif" font-size="21.25" font-weight="600" text-anchor="start" fill="#147EBA">data-2a</text>
<rect x="1145" y="1280" width="300" height="345" rx="4" fill="none" stroke="#147EBA" stroke-width="1.6"/>
<text x="1155" y="1310.6" font-family="ui-sans-serif,-apple-system,'Segoe UI',Roboto,'Helvetica Neue',Arial,'Apple SD Gothic Neo','Noto Sans KR','Malgun Gothic',sans-serif" font-size="21.25" font-weight="600" text-anchor="start" fill="#147EBA">data-2c</text>
<rect x="640" y="1050" width="810" height="195" rx="4" fill="none" stroke="#ED7100" stroke-width="1.6" stroke-dasharray="6 4"/>
<svg x="640" y="1200.8" width="44.199999999999996" height="44.199999999999996" viewBox="0 0 40 40" overflow="visible"><g fill="none" fill-rule="evenodd"><path fill="#ed7100" d="M0 0h40v40H0z"/><path fill="#fff" d="M18.021 19.495a.5.5 0 0 0-.188-.39l-2.954-2.954-.707.707 2.138 2.137H7v1h9.314l-2.142 2.142.707.707 2.969-2.969a.5.5 0 0 0 .173-.38m15.965-.5h-9.311l2.138-2.137-.707-.707-2.969 2.97a.5.5 0 0 0 .016.77l2.953 2.953.707-.707-2.142-2.142h9.315zm-12.99 12.33V22.01h-1v9.31l-2.138-2.137-.707.707 2.969 2.967a.5.5 0 0 0 .773-.016l2.951-2.95-.707-.708zM17.858 9.836l-.707-.707 2.952-2.95c.182-.233.58-.24.774-.018l2.967 2.968-.707.707-2.141-2.14v9.313h-1V7.7z"/></g></svg>
<text x="694.4" y="1229.7" font-family="ui-sans-serif,-apple-system,'Segoe UI',Roboto,'Helvetica Neue',Arial,'Apple SD Gothic Neo','Noto Sans KR','Malgun Gothic',sans-serif" font-size="21.25" font-weight="600" text-anchor="start" fill="#ED7100">Auto Scaling group · min 2 (AZ별 1대)</text>
<rect x="1710" y="635" width="785" height="1055" rx="4" fill="none" stroke="#6e7781" stroke-width="1.6" stroke-dasharray="6 4"/>
<svg x="1710" y="635" width="44.199999999999996" height="44.199999999999996" viewBox="0 0 40 40" overflow="visible"><g fill="none" fill-rule="evenodd"><path fill="#7d8998" d="M0 0h40v40H0z"/><path fill="#fff" d="M12 17h3.5a.5.5 0 0 0 .5-.5V7h7v9.5a.5.5 0 0 0 .5.5H27v16H12zm16 16.5v-17a.5.5 0 0 0-.5-.5H24V6.5a.5.5 0 0 0-.5-.5h-8a.5.5 0 0 0-.5.5V16h-3.5a.5.5 0 0 0-.5.5v17a.5.5 0 0 0 .5.5h16a.5.5 0 0 0 .5-.5M24 31h1v-2h-1zm-5 0h1v-2h-1zm-5 0h1v-2h-1zm10-4h1v-3h-1zm-5 0h1v-3h-1zm-5 0h1v-3h-1zm10-5h1v-3h-1zm-5-10h1V9h-1zm0 5h1v-3h-1zm0 5h1v-3h-1zm-5 0h1v-3h-1z"/></g></svg>
<text x="1764.4" y="665.6" font-family="ui-sans-serif,-apple-system,'Segoe UI',Roboto,'Helvetica Neue',Arial,'Apple SD Gothic Neo','Noto Sans KR','Malgun Gothic',sans-serif" font-size="21.25" font-weight="600" text-anchor="start" fill="#6e7781">온프레미스 · 신한DS 자체 서버</text>
<rect x="1870" y="970" width="200" height="445" rx="4" fill="none" stroke="#6e7781" stroke-width="1.6"/>
<text x="1880" y="1000.6" font-family="ui-sans-serif,-apple-system,'Segoe UI',Roboto,'Helvetica Neue',Arial,'Apple SD Gothic Neo','Noto Sans KR','Malgun Gothic',sans-serif" font-size="21.25" font-weight="600" text-anchor="start" fill="#6e7781">대외·모니터링 VM</text>
<rect x="2095" y="665" width="380" height="1005" rx="4" fill="none" stroke="#6e7781" stroke-width="1.6"/>
<text x="2105" y="695.6" font-family="ui-sans-serif,-apple-system,'Segoe UI',Roboto,'Helvetica Neue',Arial,'Apple SD Gothic Neo','Noto Sans KR','Malgun Gothic',sans-serif" font-size="21.25" font-weight="600" text-anchor="start" fill="#6e7781">정보계 VM</text>
<rect x="1534" y="1263.1" width="222" height="33.800000000000004" rx="16.900000000000002" fill="#f3eefe" stroke="#8C4FFF" stroke-width="2"/>
<line x1="1544" y1="1280" x2="1746" y2="1280" stroke="#8C4FFF" stroke-width="1.2" stroke-dasharray="4 4"/>
<text x="1645.0" y="1224.0" font-family="ui-sans-serif,-apple-system,'Segoe UI',Roboto,'Helvetica Neue',Arial,'Apple SD Gothic Neo','Noto Sans KR','Malgun Gothic',sans-serif" font-size="20.4" font-weight="700" text-anchor="middle" fill="#8C4FFF">Site-to-Site VPN</text>
<text x="1645.0" y="1249.5" font-family="ui-sans-serif,-apple-system,'Segoe UI',Roboto,'Helvetica Neue',Arial,'Apple SD Gothic Neo','Noto Sans KR','Malgun Gothic',sans-serif" font-size="20.4" font-weight="700" text-anchor="middle" fill="#8C4FFF">IPsec</text>
<rect x="1148" y="717.9" width="50.66" height="30.599999999999998" rx="3" fill="#ffffff" opacity="0.92"/>
<text x="1152" y="740" font-family="ui-sans-serif,-apple-system,'Segoe UI',Roboto,'Helvetica Neue',Arial,'Apple SD Gothic Neo','Noto Sans KR','Malgun Gothic',sans-serif" font-size="20.4" font-weight="600" text-anchor="start" fill="#6e7781">IGW</text>
<rect x="831" y="883.9" width="50.66" height="30.599999999999998" rx="3" fill="#ffffff" opacity="0.92"/>
<text x="835" y="906" font-family="ui-sans-serif,-apple-system,'Segoe UI',Roboto,'Helvetica Neue',Arial,'Apple SD Gothic Neo','Noto Sans KR','Malgun Gothic',sans-serif" font-size="20.4" font-weight="600" text-anchor="start" fill="#6e7781">NAT</text>
<rect x="1298.34" y="883.9" width="50.66" height="30.599999999999998" rx="3" fill="#ffffff" opacity="0.92"/>
<text x="1345" y="906" font-family="ui-sans-serif,-apple-system,'Segoe UI',Roboto,'Helvetica Neue',Arial,'Apple SD Gothic Neo','Noto Sans KR','Malgun Gothic',sans-serif" font-size="20.4" font-weight="600" text-anchor="end" fill="#6e7781">NAT</text>
<path d="M1115 240 V 268" fill="none" stroke="#DD344C" stroke-width="2" marker-end="url(#m-flow)"/>
<path d="M1085 300 H 740 V 438" fill="none" stroke="#DD344C" stroke-width="2" marker-end="url(#m-flow)"/>
<rect x="855.09" y="269.9" width="109.82" height="30.599999999999998" rx="3" fill="#ffffff" opacity="0.92"/>
<text x="910" y="292" font-family="ui-sans-serif,-apple-system,'Segoe UI',Roboto,'Helvetica Neue',Arial,'Apple SD Gothic Neo','Noto Sans KR','Malgun Gothic',sans-serif" font-size="20.4" font-weight="600" text-anchor="middle" fill="#DD344C">화면 파일</text>
<path d="M1115 402 V 728" fill="none" stroke="#DD344C" stroke-width="2" marker-end="url(#m-flow)"/>
<rect x="1121" y="567.9" width="140.42" height="30.599999999999998" rx="3" fill="#ffffff" opacity="0.92"/>
<text x="1125" y="590" font-family="ui-sans-serif,-apple-system,'Segoe UI',Roboto,'Helvetica Neue',Arial,'Apple SD Gothic Neo','Noto Sans KR','Malgun Gothic',sans-serif" font-size="20.4" font-weight="600" text-anchor="start" fill="#DD344C">API · HTTPS</text>
<path d="M1115 792 V 858" fill="none" stroke="#DD344C" stroke-width="2" marker-end="url(#m-flow)"/>
<path d="M1145 300 H 2285 V 858" fill="none" stroke="#DD344C" stroke-width="2" marker-end="url(#m-flow)"/>
<rect x="1352.31" y="269.9" width="495.37999999999994" height="30.599999999999998" rx="3" fill="#ffffff" opacity="0.92"/>
<text x="1600" y="292" font-family="ui-sans-serif,-apple-system,'Segoe UI',Roboto,'Helvetica Neue',Arial,'Apple SD Gothic Neo','Noto Sans KR','Malgun Gothic',sans-serif" font-size="20.4" font-weight="600" text-anchor="middle" fill="#DD344C">정보계 조회 API · AWS 사용 불가 시 계정계 API</text>
<path d="M1115 990 V 1025 H 830 V 1078" fill="none" stroke="#DD344C" stroke-width="2" marker-end="url(#m-flow)"/>
<path d="M1115 1025 H 1290 V 1078" fill="none" stroke="#DD344C" stroke-width="2" marker-end="url(#m-flow)"/>
<path d="M800 1050 V 932" fill="none" stroke="#6e7781" stroke-width="2" marker-end="url(#m-neutral)"/>
<rect x="804" y="977.9" width="84.32" height="30.599999999999998" rx="3" fill="#ffffff" opacity="0.92"/>
<text x="808" y="1000" font-family="ui-sans-serif,-apple-system,'Segoe UI',Roboto,'Helvetica Neue',Arial,'Apple SD Gothic Neo','Noto Sans KR','Malgun Gothic',sans-serif" font-size="20.4" font-weight="600" text-anchor="start" fill="#6e7781">egress</text>
<path d="M1380 1050 V 932" fill="none" stroke="#6e7781" stroke-width="2" marker-end="url(#m-neutral)"/>
<rect x="1384" y="977.9" width="84.32" height="30.599999999999998" rx="3" fill="#ffffff" opacity="0.92"/>
<text x="1388" y="1000" font-family="ui-sans-serif,-apple-system,'Segoe UI',Roboto,'Helvetica Neue',Arial,'Apple SD Gothic Neo','Noto Sans KR','Malgun Gothic',sans-serif" font-size="20.4" font-weight="600" text-anchor="start" fill="#6e7781">egress</text>
<path d="M800 868 V 760 H 1083" fill="none" stroke="#6e7781" stroke-width="2" marker-end="url(#m-neutral)"/>
<path d="M1380 868 V 760 H 1147" fill="none" stroke="#6e7781" stroke-width="2" marker-end="url(#m-neutral)"/>
<path d="M160 950 V 1008" fill="none" stroke="#0969da" stroke-width="2" marker-end="url(#m-ops)"/>
<rect x="166" y="962.9" width="61.879999999999995" height="30.599999999999998" rx="3" fill="#ffffff" opacity="0.92"/>
<text x="170" y="985" font-family="ui-sans-serif,-apple-system,'Segoe UI',Roboto,'Helvetica Neue',Arial,'Apple SD Gothic Neo','Noto Sans KR','Malgun Gothic',sans-serif" font-size="20.4" font-weight="600" text-anchor="start" fill="#0969da">push</text>
<path d="M190 850 H 300 V 1205 H 418" fill="none" stroke="#0969da" stroke-width="2" marker-end="url(#m-ops)"/>
<rect x="214.06" y="819.9" width="61.879999999999995" height="30.599999999999998" rx="3" fill="#ffffff" opacity="0.92"/>
<text x="245" y="842" font-family="ui-sans-serif,-apple-system,'Segoe UI',Roboto,'Helvetica Neue',Arial,'Apple SD Gothic Neo','Noto Sans KR','Malgun Gothic',sans-serif" font-size="20.4" font-weight="600" text-anchor="middle" fill="#0969da">OIDC</text>
<path d="M482 1205 H 638" fill="none" stroke="#0969da" stroke-width="2" marker-end="url(#m-ops)"/>
<rect x="561.1" y="1174.9" width="57.8" height="30.599999999999998" rx="3" fill="#ffffff" opacity="0.92"/>
<text x="590" y="1197" font-family="ui-sans-serif,-apple-system,'Segoe UI',Roboto,'Helvetica Neue',Arial,'Apple SD Gothic Neo','Noto Sans KR','Malgun Gothic',sans-serif" font-size="20.4" font-weight="600" text-anchor="middle" fill="#0969da">배포</text>
<path d="M910 1245 V 1318" fill="none" stroke="#DD344C" stroke-width="2" marker-end="url(#m-flow)"/>
<rect x="914" y="1257.9" width="275.05999999999995" height="30.599999999999998" rx="3" fill="#ffffff" opacity="0.92"/>
<text x="918" y="1280" font-family="ui-sans-serif,-apple-system,'Segoe UI',Roboto,'Helvetica Neue',Arial,'Apple SD Gothic Neo','Noto Sans KR','Malgun Gothic',sans-serif" font-size="20.4" font-weight="600" text-anchor="start" fill="#DD344C">6379 · Primary endpoint</text>
<path d="M740 1245 V 1488" fill="none" stroke="#DD344C" stroke-width="2" marker-end="url(#m-flow)"/>
<rect x="744" y="1455.9" width="275.05999999999995" height="30.599999999999998" rx="3" fill="#ffffff" opacity="0.92"/>
<text x="748" y="1478" font-family="ui-sans-serif,-apple-system,'Segoe UI',Roboto,'Helvetica Neue',Arial,'Apple SD Gothic Neo','Noto Sans KR','Malgun Gothic',sans-serif" font-size="20.4" font-weight="600" text-anchor="start" fill="#DD344C">3306 · Primary endpoint</text>
<path d="M942 1350 H 1258" fill="none" stroke="#C925D1" stroke-width="2" marker-end="url(#m-data)"/>
<rect x="996.13" y="1317.9" width="207.73999999999998" height="30.599999999999998" rx="3" fill="#ffffff" opacity="0.92"/>
<text x="1100" y="1340" font-family="ui-sans-serif,-apple-system,'Segoe UI',Roboto,'Helvetica Neue',Arial,'Apple SD Gothic Neo','Noto Sans KR','Malgun Gothic',sans-serif" font-size="20.4" font-weight="600" text-anchor="middle" fill="#C925D1">Async replication</text>
<rect x="1018.57" y="1355.9" width="162.85999999999999" height="30.599999999999998" rx="3" fill="#ffffff" opacity="0.92"/>
<text x="1100" y="1378" font-family="ui-sans-serif,-apple-system,'Segoe UI',Roboto,'Helvetica Neue',Arial,'Apple SD Gothic Neo','Noto Sans KR','Malgun Gothic',sans-serif" font-size="20.4" font-weight="600" text-anchor="middle" fill="#C925D1">Auto failover</text>
<path d="M772 1520 H 1298" fill="none" stroke="#C925D1" stroke-width="2" marker-end="url(#m-data)"/>
<rect x="936.74" y="1487.9" width="196.51999999999998" height="30.599999999999998" rx="3" fill="#ffffff" opacity="0.92"/>
<text x="1035" y="1510" font-family="ui-sans-serif,-apple-system,'Segoe UI',Roboto,'Helvetica Neue',Arial,'Apple SD Gothic Neo','Noto Sans KR','Malgun Gothic',sans-serif" font-size="20.4" font-weight="600" text-anchor="middle" fill="#C925D1">Sync replication</text>
<rect x="953.57" y="1525.9" width="162.85999999999999" height="30.599999999999998" rx="3" fill="#ffffff" opacity="0.92"/>
<text x="1035" y="1548" font-family="ui-sans-serif,-apple-system,'Segoe UI',Roboto,'Helvetica Neue',Arial,'Apple SD Gothic Neo','Noto Sans KR','Malgun Gothic',sans-serif" font-size="20.4" font-weight="600" text-anchor="middle" fill="#C925D1">Auto failover</text>
<path d="M1450 1110 H 1500 V 1248" fill="none" stroke="#6e7781" stroke-width="2" marker-end="url(#m-neutral)"/>
<rect x="1420.09" y="1157.9" width="109.82" height="30.599999999999998" rx="3" fill="#ffffff" opacity="0.92"/>
<text x="1475" y="1180" font-family="ui-sans-serif,-apple-system,'Segoe UI',Roboto,'Helvetica Neue',Arial,'Apple SD Gothic Neo','Noto Sans KR','Malgun Gothic',sans-serif" font-size="20.4" font-weight="600" text-anchor="middle" fill="#6e7781">대외 전문</text>
<path d="M1468 1280 H 1430 V 1247" fill="none" stroke="#6e7781" stroke-width="2" marker-end="url(#m-neutral)" stroke-dasharray="6 4"/>
<rect x="1341.68" y="1267.9" width="84.32" height="30.599999999999998" rx="3" fill="#ffffff" opacity="0.92"/>
<text x="1422" y="1290" font-family="ui-sans-serif,-apple-system,'Segoe UI',Roboto,'Helvetica Neue',Arial,'Apple SD Gothic Neo','Noto Sans KR','Malgun Gothic',sans-serif" font-size="20.4" font-weight="600" text-anchor="end" fill="#6e7781">scrape</text>
<path d="M740 1618 V 1655 H 1500 V 1312" fill="none" stroke="#C925D1" stroke-width="2" marker-end="url(#m-data)"/>
<rect x="1057.84" y="1638.9" width="84.32" height="30.599999999999998" rx="3" fill="#ffffff" opacity="0.92"/>
<text x="1100" y="1661" font-family="ui-sans-serif,-apple-system,'Segoe UI',Roboto,'Helvetica Neue',Arial,'Apple SD Gothic Neo','Noto Sans KR','Malgun Gothic',sans-serif" font-size="20.4" font-weight="600" text-anchor="middle" fill="#C925D1">binlog</text>
<path d="M1790 1248 V 1110 H 1938" fill="none" stroke="#6e7781" stroke-width="2" marker-end="url(#m-neutral)"/>
<path d="M1938 1280 H 1822" fill="none" stroke="#6e7781" stroke-width="2" marker-end="url(#m-neutral)" stroke-dasharray="6 4"/>
<path d="M1790 1312 V 1520 H 2158" fill="none" stroke="#C925D1" stroke-width="2" marker-end="url(#m-data)"/>
<path d="M2285 990 V 1030 H 2380 V 1078" fill="none" stroke="#DD344C" stroke-width="2" marker-end="url(#m-flow)"/>
<path d="M2285 1030 H 2190 V 1078" fill="none" stroke="#6e7781" stroke-width="2" marker-end="url(#m-neutral)" stroke-dasharray="6 4"/>
<path d="M2380 1240 V 1488" fill="none" stroke="#DD344C" stroke-width="2" marker-end="url(#m-flow)"/>
<rect x="2386" y="1377.9" width="57.8" height="30.599999999999998" rx="3" fill="#ffffff" opacity="0.92"/>
<text x="2390" y="1400" font-family="ui-sans-serif,-apple-system,'Segoe UI',Roboto,'Helvetica Neue',Arial,'Apple SD Gothic Neo','Noto Sans KR','Malgun Gothic',sans-serif" font-size="20.4" font-weight="600" text-anchor="start" fill="#DD344C">조회</text>
<path d="M2190 1240 V 1488" fill="none" stroke="#6e7781" stroke-width="2" marker-end="url(#m-neutral)" stroke-dasharray="6 4"/>
<rect x="2196" y="1377.9" width="141.44" height="30.599999999999998" rx="3" fill="#ffffff" opacity="0.92"/>
<text x="2200" y="1400" font-family="ui-sans-serif,-apple-system,'Segoe UI',Roboto,'Helvetica Neue',Arial,'Apple SD Gothic Neo','Noto Sans KR','Malgun Gothic',sans-serif" font-size="20.4" font-weight="600" text-anchor="start" fill="#6e7781">전환 시 승격</text>
<path d="M2222 1520 H 2348" fill="none" stroke="#C925D1" stroke-width="2" marker-end="url(#m-data)"/>
<rect x="2259.67" y="1487.9" width="50.66" height="30.599999999999998" rx="3" fill="#ffffff" opacity="0.92"/>
<text x="2285" y="1510" font-family="ui-sans-serif,-apple-system,'Segoe UI',Roboto,'Helvetica Neue',Arial,'Apple SD Gothic Neo','Noto Sans KR','Malgun Gothic',sans-serif" font-size="20.4" font-weight="600" text-anchor="middle" fill="#C925D1">ETL</text>
<svg x="1085.0" y="110.0" width="60" height="60" viewBox="0 0 48 48" overflow="visible"><path fill="#242f3e" fill-rule="evenodd" d="M28.639 9.286c0-2.915 2.413-5.286 5.38-5.286s5.378 2.371 5.378 5.286-2.412 5.286-5.378 5.286-5.38-2.371-5.38-5.286m11.524 7.048a11.7 11.7 0 0 0-2.035-1.001c1.97-1.31 3.269-3.531 3.269-6.047 0-4.017-3.31-7.286-7.378-7.286-4.069 0-7.38 3.269-7.38 7.286 0 2.51 1.293 4.728 3.256 6.039a11.9 11.9 0 0 0-3.546 2.1l1.303 1.518A9.77 9.77 0 0 1 34 16.572c1.802 0 3.569.505 5.109 1.461 2.74 1.702 4.538 4.692 4.844 7.967H34v2h11a1 1 0 0 0 1-1c0-4.343-2.236-8.43-5.837-10.666M8.639 9.286C8.639 6.371 11.052 4 14.019 4s5.378 2.371 5.378 5.286-2.412 5.286-5.378 5.286-5.38-2.371-5.38-5.286M14 26H4.046C4.53 20.717 8.81 16.572 14 16.572c1.802 0 3.569.505 5.109 1.461.432.269.849.575 1.24.91l1.303-1.517a11.71 11.71 0 0 0-3.524-2.093c1.97-1.31 3.269-3.531 3.269-6.047 0-4.017-3.31-7.286-7.378-7.286-4.069 0-7.38 3.269-7.38 7.286 0 2.515 1.298 4.737 3.268 6.046C5.302 17.071 2 21.638 2 27a1 1 0 0 0 1 1h11zm.046 18c.484-5.283 4.764-9.428 9.954-9.428 1.802 0 3.569.505 5.109 1.461 2.74 1.702 4.538 4.692 4.844 7.967zm4.593-16.714c0-2.915 2.413-5.286 5.38-5.286s5.378 2.371 5.378 5.286-2.412 5.286-5.378 5.286-5.38-2.371-5.38-5.286m11.524 7.048a11.7 11.7 0 0 0-2.035-1.001c1.97-1.31 3.269-3.531 3.269-6.047 0-4.017-3.31-7.286-7.378-7.286-4.069 0-7.38 3.269-7.38 7.286 0 2.515 1.298 4.737 3.268 6.046C15.302 35.071 12 39.638 12 45a1 1 0 0 0 1 1h22a1 1 0 0 0 1-1c0-4.343-2.236-8.43-5.837-10.666"/></svg>
<text x="1115" y="200.6" font-family="ui-sans-serif,-apple-system,'Segoe UI',Roboto,'Helvetica Neue',Arial,'Apple SD Gothic Neo','Noto Sans KR','Malgun Gothic',sans-serif" font-size="22.95" font-weight="700" text-anchor="middle" fill="#1f2328">사용자</text>
<text x="1115" y="231.2" font-family="ui-sans-serif,-apple-system,'Segoe UI',Roboto,'Helvetica Neue',Arial,'Apple SD Gothic Neo','Noto Sans KR','Malgun Gothic',sans-serif" font-size="19.55" font-weight="400" text-anchor="middle" fill="#59636e">브라우저 · 모바일</text>
<rect x="1085.0" y="270.0" width="60" height="60" rx="8" fill="#57606a"/>
<text x="1115" y="308.5" font-family="ui-sans-serif,-apple-system,'Segoe UI',Roboto,'Helvetica Neue',Arial,'Apple SD Gothic Neo','Noto Sans KR','Malgun Gothic',sans-serif" font-size="23.8" font-weight="700" text-anchor="middle" fill="#ffffff">DNS</text>
<text x="1115" y="360.6" font-family="ui-sans-serif,-apple-system,'Segoe UI',Roboto,'Helvetica Neue',Arial,'Apple SD Gothic Neo','Noto Sans KR','Malgun Gothic',sans-serif" font-size="22.95" font-weight="700" text-anchor="middle" fill="#1f2328">DNS</text>
<text x="1115" y="391.2" font-family="ui-sans-serif,-apple-system,'Segoe UI',Roboto,'Helvetica Neue',Arial,'Apple SD Gothic Neo','Noto Sans KR','Malgun Gothic',sans-serif" font-size="19.55" font-weight="400" text-anchor="middle" fill="#59636e">가비아</text>
<svg x="710.0" y="440.0" width="60" height="60" viewBox="0 0 24 24" overflow="visible"><g fill="#F38020"><path d="M16.5088 16.8447c.1475-.5068.0908-.9707-.1553-1.3154-.2246-.3164-.6045-.499-1.0615-.5205l-8.6592-.1123a.1559.1559 0 0 1-.1333-.0713c-.0283-.042-.0351-.0986-.021-.1553.0278-.084.1123-.1484.2036-.1562l8.7359-.1123c1.0351-.0489 2.1601-.8868 2.5537-1.9136l.499-1.3013c.0215-.0561.0293-.1128.0147-.168-.5625-2.5463-2.835-4.4453-5.5499-4.4453-2.5039 0-4.6284 1.6177-5.3876 3.8614-.4927-.3658-1.1187-.5625-1.794-.499-1.2026.119-2.1665 1.083-2.2861 2.2856-.0283.31-.0069.6128.0635.894C1.5683 13.171 0 14.7754 0 16.752c0 .1748.0142.3515.0352.5273.0141.083.0844.1475.1689.1475h15.9814c.0909 0 .1758-.0645.2032-.1553l.12-.4268zm2.7568-5.5634c-.0771 0-.1611 0-.2383.0112-.0566 0-.1054.0415-.127.0976l-.3378 1.1744c-.1475.5068-.0918.9707.1543 1.3164.2256.3164.6055.498 1.0625.5195l1.8437.1133c.0557 0 .1055.0263.1329.0703.0283.043.0351.1074.0214.1562-.0283.084-.1132.1485-.204.1553l-1.921.1123c-1.041.0488-2.1582.8867-2.5527 1.914l-.1406.3585c-.0283.0713.0215.1416.0986.1416h6.5977c.0771 0 .1474-.0489.169-.126.1122-.4082.1757-.837.1757-1.2803 0-2.6025-2.125-4.727-4.7344-4.727"/></g></svg>
<circle cx="770.0" cy="440.0" r="16.25" fill="#ffffff" stroke="#d1d9e0"/>
<svg x="758.625" y="428.625" width="22.75" height="22.75" viewBox="0 0 24 24" overflow="visible"><g fill="#61DAFB"><path d="M14.23 12.004a2.236 2.236 0 0 1-2.235 2.236 2.236 2.236 0 0 1-2.236-2.236 2.236 2.236 0 0 1 2.235-2.236 2.236 2.236 0 0 1 2.236 2.236zm2.648-10.69c-1.346 0-3.107.96-4.888 2.622-1.78-1.653-3.542-2.602-4.887-2.602-.41 0-.783.093-1.106.278-1.375.793-1.683 3.264-.973 6.365C1.98 8.917 0 10.42 0 12.004c0 1.59 1.99 3.097 5.043 4.03-.704 3.113-.39 5.588.988 6.38.32.187.69.275 1.102.275 1.345 0 3.107-.96 4.888-2.624 1.78 1.654 3.542 2.603 4.887 2.603.41 0 .783-.09 1.106-.275 1.374-.792 1.683-3.263.973-6.365C22.02 15.096 24 13.59 24 12.004c0-1.59-1.99-3.097-5.043-4.032.704-3.11.39-5.587-.988-6.38-.318-.184-.688-.277-1.092-.278zm-.005 1.09v.006c.225 0 .406.044.558.127.666.382.955 1.835.73 3.704-.054.46-.142.945-.25 1.44-.96-.236-2.006-.417-3.107-.534-.66-.905-1.345-1.727-2.035-2.447 1.592-1.48 3.087-2.292 4.105-2.295zm-9.77.02c1.012 0 2.514.808 4.11 2.28-.686.72-1.37 1.537-2.02 2.442-1.107.117-2.154.298-3.113.538-.112-.49-.195-.964-.254-1.42-.23-1.868.054-3.32.714-3.707.19-.09.4-.127.563-.132zm4.882 3.05c.455.468.91.992 1.36 1.564-.44-.02-.89-.034-1.345-.034-.46 0-.915.01-1.36.034.44-.572.895-1.096 1.345-1.565zM12 8.1c.74 0 1.477.034 2.202.093.406.582.802 1.203 1.183 1.86.372.64.71 1.29 1.018 1.946-.308.655-.646 1.31-1.013 1.95-.38.66-.773 1.288-1.18 1.87-.728.063-1.466.098-2.21.098-.74 0-1.477-.035-2.202-.093-.406-.582-.802-1.204-1.183-1.86-.372-.64-.71-1.29-1.018-1.946.303-.657.646-1.313 1.013-1.954.38-.66.773-1.286 1.18-1.868.728-.064 1.466-.098 2.21-.098zm-3.635.254c-.24.377-.48.763-.704 1.16-.225.39-.435.782-.635 1.174-.265-.656-.49-1.31-.676-1.947.64-.15 1.315-.283 2.015-.386zm7.26 0c.695.103 1.365.23 2.006.387-.18.632-.405 1.282-.66 1.933-.2-.39-.41-.783-.64-1.174-.225-.392-.465-.774-.705-1.146zm3.063.675c.484.15.944.317 1.375.498 1.732.74 2.852 1.708 2.852 2.476-.005.768-1.125 1.74-2.857 2.475-.42.18-.88.342-1.355.493-.28-.958-.646-1.956-1.1-2.98.45-1.017.81-2.01 1.085-2.964zm-13.395.004c.278.96.645 1.957 1.1 2.98-.45 1.017-.812 2.01-1.086 2.964-.484-.15-.944-.318-1.37-.5-1.732-.737-2.852-1.706-2.852-2.474 0-.768 1.12-1.742 2.852-2.476.42-.18.88-.342 1.356-.494zm11.678 4.28c.265.657.49 1.312.676 1.948-.64.157-1.316.29-2.016.39.24-.375.48-.762.705-1.158.225-.39.435-.788.636-1.18zm-9.945.02c.2.392.41.783.64 1.175.23.39.465.772.705 1.143-.695-.102-1.365-.23-2.006-.386.18-.63.406-1.282.66-1.933zM17.92 16.32c.112.493.2.968.254 1.423.23 1.868-.054 3.32-.714 3.708-.147.09-.338.128-.563.128-1.012 0-2.514-.807-4.11-2.28.686-.72 1.37-1.536 2.02-2.44 1.107-.118 2.154-.3 3.113-.54zm-11.83.01c.96.234 2.006.415 3.107.532.66.905 1.345 1.727 2.035 2.446-1.595 1.483-3.092 2.295-4.11 2.295-.22-.005-.406-.05-.553-.132-.666-.38-.955-1.834-.73-3.703.054-.46.142-.944.25-1.438zm4.56.64c.44.02.89.034 1.345.034.46 0 .915-.01 1.36-.034-.44.572-.895 1.095-1.345 1.565-.455-.47-.91-.993-1.36-1.565z"/></g></svg>
<text x="740" y="530.6" font-family="ui-sans-serif,-apple-system,'Segoe UI',Roboto,'Helvetica Neue',Arial,'Apple SD Gothic Neo','Noto Sans KR','Malgun Gothic',sans-serif" font-size="22.95" font-weight="700" text-anchor="middle" fill="#1f2328">Cloudflare Pages</text>
<text x="740" y="561.2" font-family="ui-sans-serif,-apple-system,'Segoe UI',Roboto,'Helvetica Neue',Arial,'Apple SD Gothic Neo','Noto Sans KR','Malgun Gothic',sans-serif" font-size="19.55" font-weight="400" text-anchor="middle" fill="#59636e">React FE · 고객·관리자</text>
<svg x="130.0" y="820.0" width="60" height="60" viewBox="0 0 24 24" overflow="visible"><g fill="#2088FF"><path d="M10.984 13.836a.5.5 0 0 1-.353-.146l-.745-.743a.5.5 0 1 1 .706-.708l.392.391 1.181-1.18a.5.5 0 0 1 .708.707l-1.535 1.533a.504.504 0 0 1-.354.146zm9.353-.147l1.534-1.532a.5.5 0 0 0-.707-.707l-1.181 1.18-.392-.391a.5.5 0 1 0-.706.708l.746.743a.497.497 0 0 0 .706-.001zM4.527 7.452l2.557-1.585A1 1 0 0 0 7.09 4.17L4.533 2.56A1 1 0 0 0 3 3.406v3.196a1.001 1.001 0 0 0 1.527.85zm2.03-2.436L4 6.602V3.406l2.557 1.61zM24 12.5c0 1.93-1.57 3.5-3.5 3.5a3.503 3.503 0 0 1-3.46-3h-2.08a3.503 3.503 0 0 1-3.46 3 3.502 3.502 0 0 1-3.46-3h-.558c-.972 0-1.85-.399-2.482-1.042V17c0 1.654 1.346 3 3 3h.04c.244-1.693 1.7-3 3.46-3 1.93 0 3.5 1.57 3.5 3.5S13.43 24 11.5 24a3.502 3.502 0 0 1-3.46-3H8c-2.206 0-4-1.794-4-4V9.899A5.008 5.008 0 0 1 0 5c0-2.757 2.243-5 5-5s5 2.243 5 5a5.005 5.005 0 0 1-4.952 4.998A2.482 2.482 0 0 0 7.482 12h.558c.244-1.693 1.7-3 3.46-3a3.502 3.502 0 0 1 3.46 3h2.08a3.503 3.503 0 0 1 3.46-3c1.93 0 3.5 1.57 3.5 3.5zm-15 8c0 1.378 1.122 2.5 2.5 2.5s2.5-1.122 2.5-2.5-1.122-2.5-2.5-2.5S9 19.122 9 20.5zM5 9c2.206 0 4-1.794 4-4S7.206 1 5 1 1 2.794 1 5s1.794 4 4 4zm9 3.5c0-1.378-1.122-2.5-2.5-2.5S9 11.122 9 12.5s1.122 2.5 2.5 2.5 2.5-1.122 2.5-2.5zm9 0c0-1.378-1.122-2.5-2.5-2.5S18 11.122 18 12.5s1.122 2.5 2.5 2.5 2.5-1.122 2.5-2.5zm-13 8a.5.5 0 1 0 1 0 .5.5 0 0 0-1 0zm2 0a.5.5 0 1 0 1 0 .5.5 0 0 0-1 0zm12 0c0 1.93-1.57 3.5-3.5 3.5a3.503 3.503 0 0 1-3.46-3.002c-.007.001-.013.005-.021.005l-.506.017h-.017a.5.5 0 0 1-.016-.999l.506-.017c.018-.002.035.006.052.007A3.503 3.503 0 0 1 20.5 17c1.93 0 3.5 1.57 3.5 3.5zm-1 0c0-1.378-1.122-2.5-2.5-2.5S18 19.122 18 20.5s1.122 2.5 2.5 2.5 2.5-1.122 2.5-2.5z"/></g></svg>
<text x="160" y="910.6" font-family="ui-sans-serif,-apple-system,'Segoe UI',Roboto,'Helvetica Neue',Arial,'Apple SD Gothic Neo','Noto Sans KR','Malgun Gothic',sans-serif" font-size="22.95" font-weight="700" text-anchor="middle" fill="#1f2328">GitHub Actions</text>
<text x="160" y="941.2" font-family="ui-sans-serif,-apple-system,'Segoe UI',Roboto,'Helvetica Neue',Arial,'Apple SD Gothic Neo','Noto Sans KR','Malgun Gothic',sans-serif" font-size="19.55" font-weight="400" text-anchor="middle" fill="#59636e">빌드 · 배포</text>
<svg x="130.0" y="1010.0" width="60" height="60" viewBox="0 0 24 24" overflow="visible"><g fill="#2496ED"><path d="M13.983 11.078h2.119a.186.186 0 00.186-.185V9.006a.186.186 0 00-.186-.186h-2.119a.185.185 0 00-.185.185v1.888c0 .102.083.185.185.185m-2.954-5.43h2.118a.186.186 0 00.186-.186V3.574a.186.186 0 00-.186-.185h-2.118a.185.185 0 00-.185.185v1.888c0 .102.082.185.185.185m0 2.716h2.118a.187.187 0 00.186-.186V6.29a.186.186 0 00-.186-.185h-2.118a.185.185 0 00-.185.185v1.887c0 .102.082.185.185.186m-2.93 0h2.12a.186.186 0 00.184-.186V6.29a.185.185 0 00-.185-.185H8.1a.185.185 0 00-.185.185v1.887c0 .102.083.185.185.186m-2.964 0h2.119a.186.186 0 00.185-.186V6.29a.185.185 0 00-.185-.185H5.136a.186.186 0 00-.186.185v1.887c0 .102.084.185.186.186m5.893 2.715h2.118a.186.186 0 00.186-.185V9.006a.186.186 0 00-.186-.186h-2.118a.185.185 0 00-.185.185v1.888c0 .102.082.185.185.185m-2.93 0h2.12a.185.185 0 00.184-.185V9.006a.185.185 0 00-.184-.186h-2.12a.185.185 0 00-.184.185v1.888c0 .102.083.185.185.185m-2.964 0h2.119a.185.185 0 00.185-.185V9.006a.185.185 0 00-.184-.186h-2.12a.186.186 0 00-.186.186v1.887c0 .102.084.185.186.185m-2.92 0h2.12a.185.185 0 00.184-.185V9.006a.185.185 0 00-.184-.186h-2.12a.185.185 0 00-.184.185v1.888c0 .102.082.185.185.185M23.763 9.89c-.065-.051-.672-.51-1.954-.51-.338.001-.676.03-1.01.087-.248-1.7-1.653-2.53-1.716-2.566l-.344-.199-.226.327c-.284.438-.49.922-.612 1.43-.23.97-.09 1.882.403 2.661-.595.332-1.55.413-1.744.42H.751a.751.751 0 00-.75.748 11.376 11.376 0 00.692 4.062c.545 1.428 1.355 2.48 2.41 3.124 1.18.723 3.1 1.137 5.275 1.137.983.003 1.963-.086 2.93-.266a12.248 12.248 0 003.823-1.389c.98-.567 1.86-1.288 2.61-2.136 1.252-1.418 1.998-2.997 2.553-4.4h.221c1.372 0 2.215-.549 2.68-1.009.309-.293.55-.65.707-1.046l.098-.288Z"/></g></svg>
<text x="160" y="1100.6" font-family="ui-sans-serif,-apple-system,'Segoe UI',Roboto,'Helvetica Neue',Arial,'Apple SD Gothic Neo','Noto Sans KR','Malgun Gothic',sans-serif" font-size="22.95" font-weight="700" text-anchor="middle" fill="#1f2328">Docker Hub</text>
<text x="160" y="1131.2" font-family="ui-sans-serif,-apple-system,'Segoe UI',Roboto,'Helvetica Neue',Arial,'Apple SD Gothic Neo','Noto Sans KR','Malgun Gothic',sans-serif" font-size="19.55" font-weight="400" text-anchor="middle" fill="#59636e">이미지 · NAT로 pull</text>
<svg x="420.0" y="725.0" width="60" height="60" viewBox="0 0 64 64" overflow="visible"><g fill="none" fill-rule="evenodd"><path fill="#dd344c" d="M0 0h64v64H0z"/><path fill="#fff" d="M26.929 40.397a18.6 18.6 0 0 0 3.04 1.692c-.477-2.376-.794-6.487 1.343-10.418 1.593-2.928 1.856-6.254.688-8.681a5.9 5.9 0 0 0-1.922-2.292c.762 1.759 1.19 4.299.038 7.572a1 1 0 0 1-1.825.142c-.331-.616-1.242-2.004-2.283-2.833.408 1.876.667 4.683-.673 6.788a8 8 0 0 0-.201.334c-1.47 2.589-.682 5.97 1.795 7.696m7.542-16.242c.565 2.649.092 5.725-1.401 8.471-2.165 3.981-1.363 8.319-.91 10.025 1.957-.329 6.903-1.557 7.959-5.649 1.014-3.926.4-6.199-.31-7.424-.708 2.544-2.007 3.615-2.074 3.669a1.002 1.002 0 0 1-1.614-.938c.606-3.768-.36-6.39-1.65-8.154M23.65 31.29c1.609-2.527-.074-6.965-.091-7.01a1 1 0 0 1 .932-1.361c1.75 0 3.248 1.355 4.25 2.593.529-3.989-1.877-6.084-1.997-6.184a1.004 1.004 0 0 1-.26-1.191.99.99 0 0 1 1.077-.561c1.474.261 2.773.822 3.85 1.633.955.427 5.726 2.839 6.714 8.7q.04-.264.072-.55a1 1 0 0 1 1.474-.774c.187.103 4.533 2.595 2.384 10.917-1.675 6.488-10.18 7.227-10.541 7.255l-.001-.01c-.022.002-.041.013-.063.013a1 1 0 0 1-.335-.059c-2.054-.734-3.847-1.63-5.33-2.663-3.314-2.31-4.364-6.847-2.39-10.327a10 10 0 0 1 .255-.421m-8.16 12.66 1.62-1.173A18.2 18.2 0 0 1 13.677 33H16v-2h-2.321a18.16 18.16 0 0 1 3.432-9.719l-1.621-1.173A20.16 20.16 0 0 0 11.679 31h-1.68v2h1.677c.186 3.962 1.484 7.731 3.814 10.95m27.257 2.968A18.2 18.2 0 0 1 33 50.351V48h-2v2.351a18.2 18.2 0 0 1-9.75-3.433l-1.172 1.621A20.2 20.2 0 0 0 31 52.351V54h2v-1.649c3.95-.191 7.709-1.489 10.919-3.812zM21.25 17.14A18.2 18.2 0 0 1 31 13.708V16h2v-2.292a18.2 18.2 0 0 1 9.747 3.432l1.172-1.62a20.15 20.15 0 0 0-10.92-3.812V10h-2v1.708a20.16 20.16 0 0 0-10.921 3.812zM52.32 31a20.2 20.2 0 0 0-3.811-10.892l-1.621 1.173A18.2 18.2 0 0 1 50.32 31H48v2h2.323a18.2 18.2 0 0 1-3.435 9.777l1.62 1.173c2.33-3.219 3.629-6.988 3.815-10.95H54v-2zm-7.293-10.584 6.159-6.16-1.414-1.414-6.16 6.16zM18.972 43.642l-6.16 6.16 1.414 1.414 6.16-6.16zm3.442-22.641L11.586 10.173l-1.414 1.414L21 22.415zM43 41.586l10.826 10.827-1.414 1.414L41.586 43z"/></g></svg>
<text x="450" y="815.6" font-family="ui-sans-serif,-apple-system,'Segoe UI',Roboto,'Helvetica Neue',Arial,'Apple SD Gothic Neo','Noto Sans KR','Malgun Gothic',sans-serif" font-size="22.95" font-weight="700" text-anchor="middle" fill="#1f2328">AWS WAF</text>
<text x="450" y="846.2" font-family="ui-sans-serif,-apple-system,'Segoe UI',Roboto,'Helvetica Neue',Arial,'Apple SD Gothic Neo','Noto Sans KR','Malgun Gothic',sans-serif" font-size="19.55" font-weight="400" text-anchor="middle" fill="#59636e">ALB 웹 ACL · 레이트리밋</text>
<svg x="420.0" y="875.0" width="60" height="60" viewBox="0 0 64 64" overflow="visible"><g fill="none" fill-rule="evenodd"><path fill="#dd344c" d="M0 0h64v64H0z"/><path fill="#fff" d="M28.722 30.981a1 1 0 0 1 .261.877l-.589 3.14 3.092-1.855a.99.99 0 0 1 1.029 0l3.093 1.855-.59-3.146a1 1 0 0 1 .261-.876l2.661-2.779-3.585-.532a1 1 0 0 1-.736-.518l-1.627-3.043-1.667 3.054c-.15.274-.419.463-.729.51l-3.539.536zm-2.704 5.834.904-4.82-3.643-3.798a.999.999 0 0 1 .572-1.681l4.955-.752 2.316-4.243c.176-.321.513-.521.878-.521h.004c.367.002.704.205.878.528l2.264 4.232 5.001.743a1 1 0 0 1 .575 1.681l-3.645 3.804.906 4.828a.999.999 0 0 1-1.497 1.041L32 35.166l-4.485 2.691a.99.99 0 0 1-1.086-.036 1 1 0 0 1-.411-1.006M12 17.017h39.997V13H12zM54 52a.997.997 0 0 1-1 1h-5v-2h4l-.002-31.983H12V51h29v2H11a1 1 0 0 1-1-1V12a1 1 0 0 1 1-1h41.997a1 1 0 0 1 1 1zm-35-5h5v-2h-5zm8 0h11v-2H27zm-8-4.003h5v-2h-5zM27 43h18v-2H27z"/></g></svg>
<text x="450" y="965.6" font-family="ui-sans-serif,-apple-system,'Segoe UI',Roboto,'Helvetica Neue',Arial,'Apple SD Gothic Neo','Noto Sans KR','Malgun Gothic',sans-serif" font-size="22.95" font-weight="700" text-anchor="middle" fill="#1f2328">ACM</text>
<text x="450" y="996.2" font-family="ui-sans-serif,-apple-system,'Segoe UI',Roboto,'Helvetica Neue',Arial,'Apple SD Gothic Neo','Noto Sans KR','Malgun Gothic',sans-serif" font-size="19.55" font-weight="400" text-anchor="middle" fill="#59636e">ALB 인증서</text>
<svg x="420.0" y="1025.0" width="60" height="60" viewBox="0 0 64 64" overflow="visible"><g fill="none" fill-rule="evenodd"><path fill="#dd344c" d="M0 0h64v64H0z"/><path fill="#fff" d="M31.24 34.64a.76.76 0 0 0 1.52 0 .76.76 0 0 0-1.52 0m-2 0A2.763 2.763 0 0 1 32 31.88a2.764 2.764 0 0 1 2.76 2.76A2.76 2.76 0 0 1 33 37.205V40h-2v-2.795a2.76 2.76 0 0 1-1.76-2.565M39 31H25v10h14v-2h-2v-2h2v-2h-2v-2h2zm-12-2h9.999L37 25c0-.865-.576-1.859-1.543-2.659-1.014-.84-2.305-1.341-3.454-1.341h-.002c-2.383 0-5 2.093-5.001 4zm12-4-.001 4H40a1 1 0 0 1 1 1v12a1 1 0 0 1-1 1H24a1 1 0 0 1-1-1V30a1 1 0 0 1 1-1h1v-4c.001-3.029 3.469-6 7.001-6h.002c1.625 0 3.348.657 4.729 1.801C38.174 21.994 39.001 23.525 39 25M15.489 43.95l1.621-1.173A18.2 18.2 0 0 1 13.676 33H16v-2h-2.322a18.2 18.2 0 0 1 3.432-9.719l-1.621-1.173A20.18 20.18 0 0 0 11.678 31H10v2h1.676c.185 3.962 1.484 7.731 3.813 10.95m27.258 2.968A18.2 18.2 0 0 1 33 50.35V48h-2v2.35a18.2 18.2 0 0 1-9.75-3.432l-1.172 1.62A20.17 20.17 0 0 0 31 52.35V54h2v-1.65c3.951-.19 7.709-1.488 10.919-3.812zM21.25 17.14A18.2 18.2 0 0 1 31 13.707V16h2v-2.293a18.2 18.2 0 0 1 9.747 3.433l1.172-1.62A20.16 20.16 0 0 0 33 11.707V10h-2v1.707a20.17 20.17 0 0 0-10.922 3.813zM52.319 31a20.17 20.17 0 0 0-3.81-10.892l-1.622 1.173A18.16 18.16 0 0 1 50.319 31H48v2h2.322a18.2 18.2 0 0 1-3.435 9.777l1.622 1.173c2.329-3.219 3.627-6.988 3.813-10.95H54v-2zm-7.293-10.584 6.159-6.16-1.414-1.414-6.159 6.16zM18.971 43.642l-6.16 6.16 1.414 1.414 6.161-6.16zm4.275-21.809-11.66-11.66-1.414 1.414 11.66 11.66zM43.303 41.89l10.523 10.523-1.414 1.414-10.524-10.523z"/></g></svg>
<text x="450" y="1115.6" font-family="ui-sans-serif,-apple-system,'Segoe UI',Roboto,'Helvetica Neue',Arial,'Apple SD Gothic Neo','Noto Sans KR','Malgun Gothic',sans-serif" font-size="22.95" font-weight="700" text-anchor="middle" fill="#1f2328">Secrets Manager</text>
<text x="450" y="1146.2" font-family="ui-sans-serif,-apple-system,'Segoe UI',Roboto,'Helvetica Neue',Arial,'Apple SD Gothic Neo','Noto Sans KR','Malgun Gothic',sans-serif" font-size="19.55" font-weight="400" text-anchor="middle" fill="#59636e">앱 비밀값</text>
<svg x="420.0" y="1175.0" width="60" height="60" viewBox="0 0 64 64" overflow="visible"><g fill="none" fill-rule="evenodd"><path fill="#e7157b" d="M0 0h64v64H0z"/><path fill="#fff" d="M38 43.999h9v2h-9v1h-2v-1h-3v-2h3v-1h2zm3-5h6v2h-6v1h-2v-1h-6v-2h6v-1h2zm4-5.001h2v2h-2v1h-2v-1H33v-2h10v-1h2zm-28 3h7v2h-7c-.821 0-1.751 0-2.687-.597C12.703 37.383 10 34.997 10 30.477c0-5.358 3.545-7.408 5.73-8.16l-.032-.543c-.002-4.506 2.973-9.114 6.918-10.778 4.613-1.961 9.502-.99 13.076 2.6 1.046 1.047 1.916 2.311 2.597 3.768a5.46 5.46 0 0 1 4.981-.83c2.257.742 3.679 2.789 3.894 5.55C51.701 23.105 54 25.766 54 29.996h-2c0-4.541-3.422-5.66-5.996-6.105a1 1 0 0 1-.813-1.169c-.028-2.205-.952-3.765-2.545-4.288-1.424-.47-2.997.049-3.908 1.288a1.002 1.002 0 0 1-1.748-.258c-.636-1.79-1.549-3.29-2.715-4.457-1.428-1.436-5.348-4.523-10.879-2.17-3.197 1.348-5.7 5.248-5.7 8.877l.077 1.272a1 1 0 0 1-.752 1.03c-1.875.476-5.021 1.95-5.021 6.46 0 3.383 1.841 5.259 3.385 6.236.427.272.869.285 1.615.285m35 4.525-1.101-.063a1.02 1.02 0 0 0-1.032.78 10 10 0 0 1-1.305 3.153 1 1 0 0 0 .179 1.28l.822.733-2.156 2.156-.729-.817a1 1 0 0 0-1.281-.18 10 10 0 0 1-3.157 1.309 1 1 0 0 0-.777 1.033L41.525 52h-3.05l.062-1.095a1 1 0 0 0-.777-1.032 10 10 0 0 1-3.155-1.31.996.996 0 0 0-1.28.18l-.732.82-2.156-2.157.82-.73c.364-.326.44-.868.18-1.281a10 10 0 0 1-1.306-3.155 1.02 1.02 0 0 0-1.032-.78L28 41.523v-3.05l1.103.063c.446.024.924-.3 1.032-.777a10 10 0 0 1 1.307-3.15 1 1 0 0 0-.179-1.28l-.826-.739 2.157-2.156.736.825a1 1 0 0 0 1.279.18 10 10 0 0 1 3.151-1.304 1 1 0 0 0 .777-1.032l-.062-1.106h3.05l-.062 1.107a1 1 0 0 0 .777 1.033c1.117.252 2.177.692 3.148 1.304a1 1 0 0 0 1.28-.18l.738-.827 2.157 2.156-.824.737a1 1 0 0 0-.179 1.28 10 10 0 0 1 1.306 3.151 1.02 1.02 0 0 0 1.032.778L52 38.473zm.943-5.107-1.343.077a12 12 0 0 0-.919-2.218l1.005-.896a1 1 0 0 0 .041-1.454l-3.655-3.654a.97.97 0 0 0-.735-.293 1 1 0 0 0-.718.334l-.899 1.009a12 12 0 0 0-2.214-.918l.076-1.35a1 1 0 0 0-.998-1.056h-5.168a1 1 0 0 0-.998 1.057l.076 1.347c-.767.23-1.509.538-2.216.917l-.897-1.006a1 1 0 0 0-.718-.334.99.99 0 0 0-.735.293l-3.655 3.654a1.002 1.002 0 0 0 .041 1.453l1.007.899q-.572 1.064-.92 2.216l-1.344-.077a1.002 1.002 0 0 0-1.057 1v5.166a1 1 0 0 0 1.057.999l1.339-.077c.232.77.539 1.514.919 2.222l-1.001.892a1.004 1.004 0 0 0-.041 1.454l3.655 3.655a.998.998 0 0 0 1.453-.042l.892-1q1.066.572 2.221.92l-.076 1.338A1 1 0 0 0 37.416 54h5.168a1 1 0 0 0 .998-1.057l-.076-1.335c.77-.232 1.514-.54 2.223-.921l.89.998c.183.205.443.326.718.334.24.012.541-.098.735-.292l3.655-3.655a1 1 0 0 0-.041-1.453l-1.003-.895c.38-.708.687-1.451.919-2.22l1.341.077a1.002 1.002 0 0 0 1.057-1v-5.166a1 1 0 0 0-1.057-1"/></g></svg>
<text x="450" y="1265.6" font-family="ui-sans-serif,-apple-system,'Segoe UI',Roboto,'Helvetica Neue',Arial,'Apple SD Gothic Neo','Noto Sans KR','Malgun Gothic',sans-serif" font-size="22.95" font-weight="700" text-anchor="middle" fill="#1f2328">SSM</text>
<text x="450" y="1296.2" font-family="ui-sans-serif,-apple-system,'Segoe UI',Roboto,'Helvetica Neue',Arial,'Apple SD Gothic Neo','Noto Sans KR','Malgun Gothic',sans-serif" font-size="19.55" font-weight="400" text-anchor="middle" fill="#59636e">배포 · 접속 (하이브리드)</text>
<svg x="420.0" y="1325.0" width="60" height="60" viewBox="0 0 64 64" overflow="visible"><g fill="none" fill-rule="evenodd"><path fill="#e7157b" d="M0 0h64v64H0z"/><path fill="#fff" d="M20 41.974h3V39.96h-3zm2-4.026h6v-2.013h-6zm24.96-7.884c-.226-2.335-1.404-4.05-3.248-4.672-1.474-.495-3.083-.193-4.361.744-.685-1.443-1.663-3.024-2.649-4.003-3.23-3.208-6.961-3.958-11.086-2.225-3.357 1.404-6.227 5.502-6.58 9.232-1.846.654-4.028 2.101-4.962 4.401l1.852.761c.727-1.79 2.694-3.013 4.321-3.431.443-.114.753-.516.753-.975 0-3.076 2.566-6.95 5.385-8.13 3.404-1.43 6.238-.857 8.913 1.8 1.061 1.053 2.237 3.195 2.762 4.658a1 1 0 0 0 .792.654.98.98 0 0 0 .947-.39c.817-1.094 2.13-1.57 3.279-1.186 1.222.41 1.922 1.723 1.922 3.6 0 .492.354.912.836.992 4.09.685 6.164 2.721 6.164 6.054 0 5.833-5.389 6.035-6 6.039H29V46h17c2.767 0 8-1.683 8-8.052 0-4.106-2.491-6.882-7.04-7.884M22 46h4v-2.013h-4zm3-4.026h11V39.96H25zm-14 0h7V39.96h-7zm2-4.026h6v-2.013h-6zM14 46h6v-2.013h-6zm-4 0h2v-2.013h-2z"/></g></svg>
<text x="450" y="1415.6" font-family="ui-sans-serif,-apple-system,'Segoe UI',Roboto,'Helvetica Neue',Arial,'Apple SD Gothic Neo','Noto Sans KR','Malgun Gothic',sans-serif" font-size="22.95" font-weight="700" text-anchor="middle" fill="#1f2328">CloudTrail</text>
<text x="450" y="1446.2" font-family="ui-sans-serif,-apple-system,'Segoe UI',Roboto,'Helvetica Neue',Arial,'Apple SD Gothic Neo','Noto Sans KR','Malgun Gothic',sans-serif" font-size="19.55" font-weight="400" text-anchor="middle" fill="#59636e">API 감사 기록</text>
<svg x="420.0" y="1475.0" width="60" height="60" viewBox="0 0 64 64" overflow="visible"><g fill="none" fill-rule="evenodd"><path fill="#7aa116" d="M0 0h64v64H0z"/><path fill="#fff" d="m47.759 33.948.234-1.817c2.173 1.254 2.849 1.99 3.044 2.293-.324.061-1.205.085-3.278-.476M30.499 21c-10.374 0-17.117-2.512-17.5-4.304v-.185c.35-1.119 6.14-4.51 17.5-4.51 11.34 0 17.133 3.38 17.5 4.504v.111C47.725 18.446 40.962 21 30.5 21m15.319 12.362c-4.765-1.565-10.906-4.383-13.224-5.474a2.09 2.09 0 0 0-2.082-1.982A2.097 2.097 0 0 0 28.418 28c0 1.154.94 2.094 2.094 2.094.457 0 .877-.152 1.22-.4 2.4 1.128 8.887 4.104 13.826 5.686l-1.721 13.344C43.583 50.352 38.919 52 30.497 52c-8.425 0-13.092-1.648-13.342-3.249l-3.72-28.937C16.945 21.915 23.749 23 30.5 23c6.75 0 13.554-1.085 17.065-3.185zM50 16.5c0-3.069-8.34-6.5-19.5-6.5S11 13.431 11 16.5v.543l4.174 31.99C15.874 53.516 26.123 54 30.497 54c4.372 0 14.616-.484 15.32-4.993l1.684-13.06c1.277.332 2.31.51 3.115.508.99 0 1.657-.252 2.08-.758.35-.416.489-.94.389-1.476-.228-1.22-1.682-2.509-4.715-4.177l-.1-.055L50 17.044z"/></g></svg>
<text x="450" y="1565.6" font-family="ui-sans-serif,-apple-system,'Segoe UI',Roboto,'Helvetica Neue',Arial,'Apple SD Gothic Neo','Noto Sans KR','Malgun Gothic',sans-serif" font-size="22.95" font-weight="700" text-anchor="middle" fill="#1f2328">S3 Object Lock</text>
<text x="450" y="1596.2" font-family="ui-sans-serif,-apple-system,'Segoe UI',Roboto,'Helvetica Neue',Arial,'Apple SD Gothic Neo','Noto Sans KR','Malgun Gothic',sans-serif" font-size="19.55" font-weight="400" text-anchor="middle" fill="#59636e">감사로그 WORM</text>
<text x="450" y="1621.7" font-family="ui-sans-serif,-apple-system,'Segoe UI',Roboto,'Helvetica Neue',Arial,'Apple SD Gothic Neo','Noto Sans KR','Malgun Gothic',sans-serif" font-size="19.55" font-weight="400" text-anchor="middle" fill="#59636e">GOVERNANCE 1일</text>
<svg x="1085.0" y="730.0" width="60" height="60" viewBox="0 0 48 48" overflow="visible"><path fill="#8c4fff" fill-rule="evenodd" d="M33.431 35.178h-1.498V17.502a1 1 0 0 0-.589-.911l-.092-.042c-2.009-.907-4.088-1.846-7.076-1.846-3.123 0-5.415 1.009-7.68 2.134a1 1 0 0 0-.556.896v17.445h-1.463V16.312c2.434-1.98 5.943-3.107 9.71-3.107 3.5 0 6.838.997 9.244 2.748zm-9.245-23.973c-4.425 0-8.569 1.419-11.37 3.895a1 1 0 0 0-.339.749v20.329a1 1 0 0 0 1 1h3.463a1 1 0 0 0 1-1V18.356c1.92-.927 3.78-1.653 6.236-1.653 2.335 0 4.033.675 5.757 1.446v18.029a1 1 0 0 0 1 1h3.498a1 1 0 0 0 1-1v-20.72c0-.304-.139-.592-.378-.783-2.774-2.205-6.735-3.47-10.867-3.47m-.232 32.704C12.952 43.909 4 34.957 4 23.954S12.952 4 23.954 4C34.957 4 43.91 12.95 43.91 23.954c0 11.003-8.952 19.955-19.955 19.955m0-41.91C11.848 2 2 11.85 2 23.955c0 12.107 9.85 21.955 21.955 21.955 12.106 0 21.955-9.848 21.955-21.955C45.91 11.849 36.06 2 23.954 2"/></svg>
<text x="1115" y="820.6" font-family="ui-sans-serif,-apple-system,'Segoe UI',Roboto,'Helvetica Neue',Arial,'Apple SD Gothic Neo','Noto Sans KR','Malgun Gothic',sans-serif" font-size="22.95" font-weight="700" text-anchor="middle" fill="#1f2328"></text>
<svg x="1085.0" y="860.0" width="60" height="60" viewBox="0 0 64 64" overflow="visible"><g fill="none" fill-rule="evenodd"><path fill="#8c4fff" d="M0 0h64v64H0z"/><path fill="#fff" d="M23.5 42C17.71 42 13 37.29 13 31.5S17.71 21 23.5 21 34 25.71 34 31.5 29.29 42 23.5 42M48 48c0 1.654-1.346 3-3 3s-3-1.346-3-3 1.346-3 3-3 3 1.346 3 3m-3-35c1.654 0 3 1.346 3 3s-1.346 3-3 3-3-1.346-3-3 1.346-3 3-3m3 16c1.654 0 3 1.346 3 3s-1.346 3-3 3-3-1.346-3-3 1.346-3 3-3m-12.099 4h7.201A5.01 5.01 0 0 0 48 37c2.757 0 5-2.243 5-5s-2.243-5-5-5a5.01 5.01 0 0 0-4.898 4h-7.127a12.5 12.5 0 0 0-.879-4.144l7.703-6.389A4.94 4.94 0 0 0 45 21c2.757 0 5-2.243 5-5s-2.243-5-5-5-5 2.243-5 5c0 1.224.459 2.331 1.191 3.201l-7.019 5.823C31.977 21.42 28.021 19 23.5 19 16.607 19 11 24.607 11 31.5S16.607 44 23.5 44c4.243 0 7.993-2.129 10.254-5.371l7.437 6.17C40.459 45.669 40 46.776 40 48c0 2.757 2.243 5 5 5s5-2.243 5-5-2.243-5-5-5a4.94 4.94 0 0 0-2.201.533l-8.029-6.66c.574-1.2.966-2.5 1.131-3.873"/></g></svg>
<circle cx="1145.0" cy="860.0" r="16.25" fill="#ffffff" stroke="#d1d9e0"/>
<svg x="1133.625" y="848.625" width="22.75" height="22.75" viewBox="0 0 64 64" overflow="visible"><g fill="none" fill-rule="evenodd"><path fill="#dd344c" d="M0 0h64v64H0z"/><path fill="#fff" d="M26.929 40.397a18.6 18.6 0 0 0 3.04 1.692c-.477-2.376-.794-6.487 1.343-10.418 1.593-2.928 1.856-6.254.688-8.681a5.9 5.9 0 0 0-1.922-2.292c.762 1.759 1.19 4.299.038 7.572a1 1 0 0 1-1.825.142c-.331-.616-1.242-2.004-2.283-2.833.408 1.876.667 4.683-.673 6.788a8 8 0 0 0-.201.334c-1.47 2.589-.682 5.97 1.795 7.696m7.542-16.242c.565 2.649.092 5.725-1.401 8.471-2.165 3.981-1.363 8.319-.91 10.025 1.957-.329 6.903-1.557 7.959-5.649 1.014-3.926.4-6.199-.31-7.424-.708 2.544-2.007 3.615-2.074 3.669a1.002 1.002 0 0 1-1.614-.938c.606-3.768-.36-6.39-1.65-8.154M23.65 31.29c1.609-2.527-.074-6.965-.091-7.01a1 1 0 0 1 .932-1.361c1.75 0 3.248 1.355 4.25 2.593.529-3.989-1.877-6.084-1.997-6.184a1.004 1.004 0 0 1-.26-1.191.99.99 0 0 1 1.077-.561c1.474.261 2.773.822 3.85 1.633.955.427 5.726 2.839 6.714 8.7q.04-.264.072-.55a1 1 0 0 1 1.474-.774c.187.103 4.533 2.595 2.384 10.917-1.675 6.488-10.18 7.227-10.541 7.255l-.001-.01c-.022.002-.041.013-.063.013a1 1 0 0 1-.335-.059c-2.054-.734-3.847-1.63-5.33-2.663-3.314-2.31-4.364-6.847-2.39-10.327a10 10 0 0 1 .255-.421m-8.16 12.66 1.62-1.173A18.2 18.2 0 0 1 13.677 33H16v-2h-2.321a18.16 18.16 0 0 1 3.432-9.719l-1.621-1.173A20.16 20.16 0 0 0 11.679 31h-1.68v2h1.677c.186 3.962 1.484 7.731 3.814 10.95m27.257 2.968A18.2 18.2 0 0 1 33 50.351V48h-2v2.351a18.2 18.2 0 0 1-9.75-3.433l-1.172 1.621A20.2 20.2 0 0 0 31 52.351V54h2v-1.649c3.95-.191 7.709-1.489 10.919-3.812zM21.25 17.14A18.2 18.2 0 0 1 31 13.708V16h2v-2.292a18.2 18.2 0 0 1 9.747 3.432l1.172-1.62a20.15 20.15 0 0 0-10.92-3.812V10h-2v1.708a20.16 20.16 0 0 0-10.921 3.812zM52.32 31a20.2 20.2 0 0 0-3.811-10.892l-1.621 1.173A18.2 18.2 0 0 1 50.32 31H48v2h2.323a18.2 18.2 0 0 1-3.435 9.777l1.62 1.173c2.33-3.219 3.629-6.988 3.815-10.95H54v-2zm-7.293-10.584 6.159-6.16-1.414-1.414-6.16 6.16zM18.972 43.642l-6.16 6.16 1.414 1.414 6.16-6.16zm3.442-22.641L11.586 10.173l-1.414 1.414L21 22.415zM43 41.586l10.826 10.827-1.414 1.414L41.586 43z"/></g></svg>
<text x="1115" y="950.6" font-family="ui-sans-serif,-apple-system,'Segoe UI',Roboto,'Helvetica Neue',Arial,'Apple SD Gothic Neo','Noto Sans KR','Malgun Gothic',sans-serif" font-size="22.95" font-weight="700" text-anchor="middle" fill="#1f2328">ALB</text>
<svg x="770.0" y="870.0" width="60" height="60" viewBox="0 0 48 48" overflow="visible"><path fill="#8c4fff" fill-rule="evenodd" d="M13.626 35.92v-2.837l1.774 1.419zm-.375-5.7a1.001 1.001 0 0 0-1.625.781v7a1.001 1.001 0 0 0 1.625.782l4.374-3.5a1 1 0 0 0 0-1.562zm24-3.383v-3.922l1.962 1.96zm4.083-2.668-4.376-4.375a1 1 0 0 0-1.706.707v3.375h-7.627v-9.5a1 1 0 0 0-1-1h-7.693v2h6.694v8.5H18.75v2h6.875v8.5h-6.693v2h7.694a1 1 0 0 0 1-1v-9.5h7.625v3.376a1 1 0 0 0 1.708.707l4.374-4.376a1 1 0 0 0 0-1.414m-27.708 2.127v-2.84l1.774 1.42zm-.375-5.701a1 1 0 0 0-1.625.78v7.002a1.001 1.001 0 0 0 1.625.78l4.374-3.5a1 1 0 0 0 0-1.562zm.375-4.8v-2.838l1.774 1.419zm-.375-5.7a1.001 1.001 0 0 0-1.625.781v7a1.001 1.001 0 0 0 1.625.78l4.374-3.5a1 1 0 0 0 0-1.561zM24 44.003C12.971 44.003 4 35.03 4 24S12.973 4 24 4c11.03 0 20.002 8.973 20.002 20 0 11.03-8.973 20.003-20.002 20.003M24 2C11.868 2 2 11.869 2 24c0 12.133 9.869 22.003 22 22.003 12.133 0 22.002-9.87 22.002-22.002S36.133 2 24 2"/></svg>
<text x="800" y="960.6" font-family="ui-sans-serif,-apple-system,'Segoe UI',Roboto,'Helvetica Neue',Arial,'Apple SD Gothic Neo','Noto Sans KR','Malgun Gothic',sans-serif" font-size="22.95" font-weight="700" text-anchor="middle" fill="#1f2328"></text>
<svg x="1350.0" y="870.0" width="60" height="60" viewBox="0 0 48 48" overflow="visible"><path fill="#8c4fff" fill-rule="evenodd" d="M13.626 35.92v-2.837l1.774 1.419zm-.375-5.7a1.001 1.001 0 0 0-1.625.781v7a1.001 1.001 0 0 0 1.625.782l4.374-3.5a1 1 0 0 0 0-1.562zm24-3.383v-3.922l1.962 1.96zm4.083-2.668-4.376-4.375a1 1 0 0 0-1.706.707v3.375h-7.627v-9.5a1 1 0 0 0-1-1h-7.693v2h6.694v8.5H18.75v2h6.875v8.5h-6.693v2h7.694a1 1 0 0 0 1-1v-9.5h7.625v3.376a1 1 0 0 0 1.708.707l4.374-4.376a1 1 0 0 0 0-1.414m-27.708 2.127v-2.84l1.774 1.42zm-.375-5.701a1 1 0 0 0-1.625.78v7.002a1.001 1.001 0 0 0 1.625.78l4.374-3.5a1 1 0 0 0 0-1.562zm.375-4.8v-2.838l1.774 1.419zm-.375-5.7a1.001 1.001 0 0 0-1.625.781v7a1.001 1.001 0 0 0 1.625.78l4.374-3.5a1 1 0 0 0 0-1.561zM24 44.003C12.971 44.003 4 35.03 4 24S12.973 4 24 4c11.03 0 20.002 8.973 20.002 20 0 11.03-8.973 20.003-20.002 20.003M24 2C11.868 2 2 11.869 2 24c0 12.133 9.869 22.003 22 22.003 12.133 0 22.002-9.87 22.002-22.002S36.133 2 24 2"/></svg>
<text x="1380" y="960.6" font-family="ui-sans-serif,-apple-system,'Segoe UI',Roboto,'Helvetica Neue',Arial,'Apple SD Gothic Neo','Noto Sans KR','Malgun Gothic',sans-serif" font-size="22.95" font-weight="700" text-anchor="middle" fill="#1f2328"></text>
<svg x="800.0" y="1080.0" width="60" height="60" viewBox="0 0 64 64" overflow="visible"><g fill="none" fill-rule="evenodd"><path fill="#ed7100" d="M0 0h64v64H0z"/><path fill="#fff" d="M22 41h19V23H22zm21-18h3v2h-3v2h3v2h-3v2h3v2h-3v3h3v2h-3v2h3v2h-3.137c-.255.587-.84 1-1.519 1H41v3h-2v-3h-2v3h-2v-3h-2v3h-2v-3h-2v3h-2v-3h-3v3h-2v-3h-.344a1.66 1.66 0 0 1-1.519-1H18v-2h2v-2h-2v-2h2v-3h-2v-2h2v-2h-2v-2h2v-2h-2v-2h2v-.344c0-.913.743-1.656 1.656-1.656H22v-3h2v3h3v-3h2v3h2v-3h2v3h2v-3h2v3h2v-3h2v3h.344c.913 0 1.656.743 1.656 1.656zM32 52H12V32h4v-2h-4.157A1.845 1.845 0 0 0 10 31.843v20.314c0 1.016.826 1.843 1.843 1.843h20.314A1.845 1.845 0 0 0 34 52.157V48h-2zm22-40.157v20.314A1.845 1.845 0 0 1 52.157 34H48v-2h4V12H32v4h-2v-4.157c0-1.016.826-1.843 1.843-1.843h20.314c1.017 0 1.843.827 1.843 1.843"/></g></svg>
<circle cx="860.0" cy="1080.0" r="16.25" fill="#ffffff" stroke="#d1d9e0"/>
<svg x="848.625" y="1068.625" width="22.75" height="22.75" viewBox="0 0 24 24" overflow="visible"><g fill="#6DB33F"><path d="M21.8537 1.4158a10.4504 10.4504 0 0 1-1.284 2.2471A11.9666 11.9666 0 1 0 3.8518 20.7757l.4445.3951a11.9543 11.9543 0 0 0 19.6316-8.2971c.3457-3.0126-.568-6.8649-2.0743-11.458zM5.5805 20.8745a1.0174 1.0174 0 1 1-.1482-1.4323 1.0396 1.0396 0 0 1 .1482 1.4323zm16.1991-3.5806c-2.9385 3.9263-9.2601 2.5928-13.2852 2.7904 0 0-.7161.0494-1.4323.1481 0 0 .2717-.1234.6174-.2469 2.8398-.9877 4.1732-1.1853 5.9018-2.0743 3.2349-1.6545 6.4698-5.2844 7.1118-9.0379-1.2347 3.6053-4.9881 6.7167-8.3959 7.9761-2.3459.8643-6.5685 1.7039-6.5685 1.7039l-.1729-.0988c-2.8645-1.4076-2.9632-7.6304 2.2718-9.6306 2.2966-.889 4.4696-.395 6.9637-.9877 2.6422-.6174 5.7043-2.5929 6.939-5.1857 1.3828 4.1732 3.062 10.643.0493 14.6434z"/></g></svg>
<text x="830" y="1170.6" font-family="ui-sans-serif,-apple-system,'Segoe UI',Roboto,'Helvetica Neue',Arial,'Apple SD Gothic Neo','Noto Sans KR','Malgun Gothic',sans-serif" font-size="22.95" font-weight="700" text-anchor="middle" fill="#1f2328">WAS</text>
<text x="830" y="1201.2" font-family="ui-sans-serif,-apple-system,'Segoe UI',Roboto,'Helvetica Neue',Arial,'Apple SD Gothic Neo','Noto Sans KR','Malgun Gothic',sans-serif" font-size="19.55" font-weight="400" text-anchor="middle" fill="#59636e">Spring Boot · 내비게이션 API</text>
<svg x="1260.0" y="1080.0" width="60" height="60" viewBox="0 0 64 64" overflow="visible"><g fill="none" fill-rule="evenodd"><path fill="#ed7100" d="M0 0h64v64H0z"/><path fill="#fff" d="M22 41h19V23H22zm21-18h3v2h-3v2h3v2h-3v2h3v2h-3v3h3v2h-3v2h3v2h-3.137c-.255.587-.84 1-1.519 1H41v3h-2v-3h-2v3h-2v-3h-2v3h-2v-3h-2v3h-2v-3h-3v3h-2v-3h-.344a1.66 1.66 0 0 1-1.519-1H18v-2h2v-2h-2v-2h2v-3h-2v-2h2v-2h-2v-2h2v-2h-2v-2h2v-.344c0-.913.743-1.656 1.656-1.656H22v-3h2v3h3v-3h2v3h2v-3h2v3h2v-3h2v3h2v-3h2v3h.344c.913 0 1.656.743 1.656 1.656zM32 52H12V32h4v-2h-4.157A1.845 1.845 0 0 0 10 31.843v20.314c0 1.016.826 1.843 1.843 1.843h20.314A1.845 1.845 0 0 0 34 52.157V48h-2zm22-40.157v20.314A1.845 1.845 0 0 1 52.157 34H48v-2h4V12H32v4h-2v-4.157c0-1.016.826-1.843 1.843-1.843h20.314c1.017 0 1.843.827 1.843 1.843"/></g></svg>
<circle cx="1320.0" cy="1080.0" r="16.25" fill="#ffffff" stroke="#d1d9e0"/>
<svg x="1308.625" y="1068.625" width="22.75" height="22.75" viewBox="0 0 24 24" overflow="visible"><g fill="#6DB33F"><path d="M21.8537 1.4158a10.4504 10.4504 0 0 1-1.284 2.2471A11.9666 11.9666 0 1 0 3.8518 20.7757l.4445.3951a11.9543 11.9543 0 0 0 19.6316-8.2971c.3457-3.0126-.568-6.8649-2.0743-11.458zM5.5805 20.8745a1.0174 1.0174 0 1 1-.1482-1.4323 1.0396 1.0396 0 0 1 .1482 1.4323zm16.1991-3.5806c-2.9385 3.9263-9.2601 2.5928-13.2852 2.7904 0 0-.7161.0494-1.4323.1481 0 0 .2717-.1234.6174-.2469 2.8398-.9877 4.1732-1.1853 5.9018-2.0743 3.2349-1.6545 6.4698-5.2844 7.1118-9.0379-1.2347 3.6053-4.9881 6.7167-8.3959 7.9761-2.3459.8643-6.5685 1.7039-6.5685 1.7039l-.1729-.0988c-2.8645-1.4076-2.9632-7.6304 2.2718-9.6306 2.2966-.889 4.4696-.395 6.9637-.9877 2.6422-.6174 5.7043-2.5929 6.939-5.1857 1.3828 4.1732 3.062 10.643.0493 14.6434z"/></g></svg>
<text x="1290" y="1170.6" font-family="ui-sans-serif,-apple-system,'Segoe UI',Roboto,'Helvetica Neue',Arial,'Apple SD Gothic Neo','Noto Sans KR','Malgun Gothic',sans-serif" font-size="22.95" font-weight="700" text-anchor="middle" fill="#1f2328">WAS</text>
<text x="1290" y="1201.2" font-family="ui-sans-serif,-apple-system,'Segoe UI',Roboto,'Helvetica Neue',Arial,'Apple SD Gothic Neo','Noto Sans KR','Malgun Gothic',sans-serif" font-size="19.55" font-weight="400" text-anchor="middle" fill="#59636e">Spring Boot · 내비게이션 API</text>
<svg x="880.0" y="1320.0" width="60" height="60" viewBox="0 0 64 64" overflow="visible"><g fill="none" fill-rule="evenodd"><path fill="#c925d1" d="M0 0h64v64H0z"/><path fill="#fff" d="M40.05 35.279V30.62c-1.988 1.103-5.194 1.62-8.386 1.62-3.35 0-6.025-.554-7.714-1.517v4.555c0 .953 2.452 2.364 7.714 2.364 5.506 0 8.386-1.54 8.386-2.364m0 6.73v-3.984c-1.988 1.103-5.194 1.62-8.386 1.62-3.35 0-6.025-.554-7.714-1.518v3.882c0 .953 2.452 2.363 7.714 2.363 5.506 0 8.386-1.54 8.386-2.364m0 6.655v-3.91c-1.988 1.103-5.194 1.62-8.386 1.62-3.35 0-6.025-.554-7.714-1.517v3.807c0 .978 2.682 2.334 7.717 2.334 5.504 0 8.383-1.52 8.383-2.334m-16.1-20.79c0 .992 2.681 2.365 7.714 2.365 5.506 0 8.386-1.54 8.386-2.364 0-.825-2.88-2.364-8.386-2.364-5.033 0-7.714 1.373-7.714 2.364m18.1 0c0 .05-.013.097-.016.146h.016v20.644c0 2.995-5.215 4.336-10.383 4.336-5.902 0-9.717-1.702-9.717-4.336V28.019h.013c-.002-.048-.013-.095-.013-.144 0-2.652 3.813-4.366 9.714-4.366 5.17 0 10.386 1.35 10.386 4.366M53 18.005a1 1 0 0 0 1-1v-4.003A1 1 0 0 0 53 12H11a1 1 0 0 0-1 1v4.004a1 1 0 0 0 1 1 1.502 1.502 0 0 1 0 3.003 1 1 0 0 0-1 1.001v16.013a1 1 0 0 0 1 1h8v-2h-4v-2.002h4v-2.002h-5a1 1 0 0 0-1 1v3.003h-1V22.863a3.51 3.51 0 0 0 2.5-3.357 3.51 3.51 0 0 0-2.5-3.358v-2.146h40v2.146a3.51 3.51 0 0 0-2.5 3.358 3.51 3.51 0 0 0 2.5 3.357V37.02h-1v-3.002a1 1 0 0 0-1-1.001h-5v2.002h4v2.001h-4v2.002h8a1 1 0 0 0 1-1.001V22.008a1 1 0 0 0-1-1 1.502 1.502 0 0 1 0-3.003M22 23.01v-6.005a1 1 0 0 0-1-1h-4a1 1 0 0 0-1 1v13.01a1 1 0 0 0 1 1.001h2v-2.001h-1v-11.01h2v5.005zm24 6.005h-1v2.001h2a1 1 0 0 0 1-1V17.003a1 1 0 0 0-1-1h-4a1 1 0 0 0-1 1v6.005h2v-5.004h2zm-6-7.006v-5.004a1 1 0 0 0-1-1h-5a1 1 0 0 0-1 1v4.003h2v-3.002h3v4.003zm-11-1v-3.003h-3v4.003h-2v-5.004a1 1 0 0 1 1-1h5a1 1 0 0 1 1 1v4.003z"/></g></svg>
<text x="910" y="1410.6" font-family="ui-sans-serif,-apple-system,'Segoe UI',Roboto,'Helvetica Neue',Arial,'Apple SD Gothic Neo','Noto Sans KR','Malgun Gothic',sans-serif" font-size="22.95" font-weight="700" text-anchor="middle" fill="#1f2328">Redis</text>
<text x="910" y="1441.2" font-family="ui-sans-serif,-apple-system,'Segoe UI',Roboto,'Helvetica Neue',Arial,'Apple SD Gothic Neo','Noto Sans KR','Malgun Gothic',sans-serif" font-size="19.55" font-weight="400" text-anchor="middle" fill="#59636e">ElastiCache · Primary</text>
<svg x="1260.0" y="1320.0" width="60" height="60" viewBox="0 0 64 64" overflow="visible"><g fill="none" fill-rule="evenodd"><path fill="#c925d1" d="M0 0h64v64H0z"/><path fill="#fff" d="M40.05 35.279V30.62c-1.988 1.103-5.194 1.62-8.386 1.62-3.35 0-6.025-.554-7.714-1.517v4.555c0 .953 2.452 2.364 7.714 2.364 5.506 0 8.386-1.54 8.386-2.364m0 6.73v-3.984c-1.988 1.103-5.194 1.62-8.386 1.62-3.35 0-6.025-.554-7.714-1.518v3.882c0 .953 2.452 2.363 7.714 2.363 5.506 0 8.386-1.54 8.386-2.364m0 6.655v-3.91c-1.988 1.103-5.194 1.62-8.386 1.62-3.35 0-6.025-.554-7.714-1.517v3.807c0 .978 2.682 2.334 7.717 2.334 5.504 0 8.383-1.52 8.383-2.334m-16.1-20.79c0 .992 2.681 2.365 7.714 2.365 5.506 0 8.386-1.54 8.386-2.364 0-.825-2.88-2.364-8.386-2.364-5.033 0-7.714 1.373-7.714 2.364m18.1 0c0 .05-.013.097-.016.146h.016v20.644c0 2.995-5.215 4.336-10.383 4.336-5.902 0-9.717-1.702-9.717-4.336V28.019h.013c-.002-.048-.013-.095-.013-.144 0-2.652 3.813-4.366 9.714-4.366 5.17 0 10.386 1.35 10.386 4.366M53 18.005a1 1 0 0 0 1-1v-4.003A1 1 0 0 0 53 12H11a1 1 0 0 0-1 1v4.004a1 1 0 0 0 1 1 1.502 1.502 0 0 1 0 3.003 1 1 0 0 0-1 1.001v16.013a1 1 0 0 0 1 1h8v-2h-4v-2.002h4v-2.002h-5a1 1 0 0 0-1 1v3.003h-1V22.863a3.51 3.51 0 0 0 2.5-3.357 3.51 3.51 0 0 0-2.5-3.358v-2.146h40v2.146a3.51 3.51 0 0 0-2.5 3.358 3.51 3.51 0 0 0 2.5 3.357V37.02h-1v-3.002a1 1 0 0 0-1-1.001h-5v2.002h4v2.001h-4v2.002h8a1 1 0 0 0 1-1.001V22.008a1 1 0 0 0-1-1 1.502 1.502 0 0 1 0-3.003M22 23.01v-6.005a1 1 0 0 0-1-1h-4a1 1 0 0 0-1 1v13.01a1 1 0 0 0 1 1.001h2v-2.001h-1v-11.01h2v5.005zm24 6.005h-1v2.001h2a1 1 0 0 0 1-1V17.003a1 1 0 0 0-1-1h-4a1 1 0 0 0-1 1v6.005h2v-5.004h2zm-6-7.006v-5.004a1 1 0 0 0-1-1h-5a1 1 0 0 0-1 1v4.003h2v-3.002h3v4.003zm-11-1v-3.003h-3v4.003h-2v-5.004a1 1 0 0 1 1-1h5a1 1 0 0 1 1 1v4.003z"/></g></svg>
<text x="1290" y="1410.6" font-family="ui-sans-serif,-apple-system,'Segoe UI',Roboto,'Helvetica Neue',Arial,'Apple SD Gothic Neo','Noto Sans KR','Malgun Gothic',sans-serif" font-size="22.95" font-weight="700" text-anchor="middle" fill="#1f2328">Redis</text>
<text x="1290" y="1441.2" font-family="ui-sans-serif,-apple-system,'Segoe UI',Roboto,'Helvetica Neue',Arial,'Apple SD Gothic Neo','Noto Sans KR','Malgun Gothic',sans-serif" font-size="19.55" font-weight="400" text-anchor="middle" fill="#59636e">ElastiCache · Replica (대기)</text>
<svg x="710.0" y="1490.0" width="60" height="60" viewBox="0 0 64 64" overflow="visible"><g fill="none" fill-rule="evenodd"><path fill="#c925d1" d="M0 0h64v64H0z"/><path fill="#fff" d="M54 11v8h-2v-5.586l-6.293 6.293-1.414-1.414L50.586 12h-5.461v-2H53a1 1 0 0 1 1 1m-42 7.875h-2V11a1 1 0 0 1 1-1h8v2h-5.586l6.293 6.293-1.414 1.414L12 13.414zm7.707 26.832L13.414 52h5.461v2H11a1 1 0 0 1-1-1v-8h2v5.586l6.293-6.293zM51.5 31.781c0-2.429-2.866-4.849-7.667-6.474l.641-1.894c5.736 1.941 9.026 4.991 9.026 8.368s-3.29 6.427-9.026 8.369l-.641-1.895c4.801-1.624 7.667-4.045 7.667-6.474m-38.957 0c0 2.324 2.681 4.679 7.172 6.3l-.68 1.88c-5.396-1.947-8.492-4.928-8.492-8.18s3.096-6.233 8.492-8.18l.68 1.881c-4.491 1.621-7.172 3.976-7.172 6.299M52 45.125h2V53a1 1 0 0 1-1 1h-8v-2h5.586l-6.293-6.293 1.414-1.414L52 50.586zM32.022 31.402c-5.023 0-7.896-1.343-8.022-1.919v-3.226c2.159 1.009 5.609 1.336 8 1.336s5.841-.327 8-1.336v3.226c-.106.574-2.949 1.919-7.978 1.919m0 5.728c-5.023 0-7.896-1.344-8.022-1.92v-3.254c1.953.981 5.055 1.446 8.022 1.446 2.951 0 6.033-.464 7.978-1.442v3.25c-.106.575-2.948 1.92-7.978 1.92M32 42.268c-5.05 0-7.896-1.351-8-1.922v-2.663c1.953.982 5.055 1.447 8.022 1.447 2.951 0 6.033-.464 7.978-1.443v2.655c-.104.575-2.95 1.926-8 1.926m0-20.075c4.971 0 7.642 1.177 7.982 1.701-.34.523-3.011 1.699-7.982 1.699-5.091 0-7.767-1.232-8-1.644v-.019c.233-.504 2.909-1.737 8-1.737m0-2c-3.714 0-10 .78-10 3.701v16.452c0 2.695 5.184 3.922 10 3.922s10-1.227 10-3.922V23.894c0-2.921-6.286-3.701-10-3.701"/></g></svg>
<text x="740" y="1580.6" font-family="ui-sans-serif,-apple-system,'Segoe UI',Roboto,'Helvetica Neue',Arial,'Apple SD Gothic Neo','Noto Sans KR','Malgun Gothic',sans-serif" font-size="22.95" font-weight="700" text-anchor="middle" fill="#1f2328">RDS MySQL</text>
<text x="740" y="1611.2" font-family="ui-sans-serif,-apple-system,'Segoe UI',Roboto,'Helvetica Neue',Arial,'Apple SD Gothic Neo','Noto Sans KR','Malgun Gothic',sans-serif" font-size="19.55" font-weight="400" text-anchor="middle" fill="#59636e">Primary · 자동 백업</text>
<svg x="1300.0" y="1490.0" width="60" height="60" viewBox="0 0 64 64" overflow="visible"><g fill="none" fill-rule="evenodd"><path fill="#c925d1" d="M0 0h64v64H0z"/><path fill="#fff" d="M54 11v8h-2v-5.586l-6.293 6.293-1.414-1.414L50.586 12h-5.461v-2H53a1 1 0 0 1 1 1m-42 7.875h-2V11a1 1 0 0 1 1-1h8v2h-5.586l6.293 6.293-1.414 1.414L12 13.414zm7.707 26.832L13.414 52h5.461v2H11a1 1 0 0 1-1-1v-8h2v5.586l6.293-6.293zM51.5 31.781c0-2.429-2.866-4.849-7.667-6.474l.641-1.894c5.736 1.941 9.026 4.991 9.026 8.368s-3.29 6.427-9.026 8.369l-.641-1.895c4.801-1.624 7.667-4.045 7.667-6.474m-38.957 0c0 2.324 2.681 4.679 7.172 6.3l-.68 1.88c-5.396-1.947-8.492-4.928-8.492-8.18s3.096-6.233 8.492-8.18l.68 1.881c-4.491 1.621-7.172 3.976-7.172 6.299M52 45.125h2V53a1 1 0 0 1-1 1h-8v-2h5.586l-6.293-6.293 1.414-1.414L52 50.586zM32.022 31.402c-5.023 0-7.896-1.343-8.022-1.919v-3.226c2.159 1.009 5.609 1.336 8 1.336s5.841-.327 8-1.336v3.226c-.106.574-2.949 1.919-7.978 1.919m0 5.728c-5.023 0-7.896-1.344-8.022-1.92v-3.254c1.953.981 5.055 1.446 8.022 1.446 2.951 0 6.033-.464 7.978-1.442v3.25c-.106.575-2.948 1.92-7.978 1.92M32 42.268c-5.05 0-7.896-1.351-8-1.922v-2.663c1.953.982 5.055 1.447 8.022 1.447 2.951 0 6.033-.464 7.978-1.443v2.655c-.104.575-2.95 1.926-8 1.926m0-20.075c4.971 0 7.642 1.177 7.982 1.701-.34.523-3.011 1.699-7.982 1.699-5.091 0-7.767-1.232-8-1.644v-.019c.233-.504 2.909-1.737 8-1.737m0-2c-3.714 0-10 .78-10 3.701v16.452c0 2.695 5.184 3.922 10 3.922s10-1.227 10-3.922V23.894c0-2.921-6.286-3.701-10-3.701"/></g></svg>
<text x="1330" y="1580.6" font-family="ui-sans-serif,-apple-system,'Segoe UI',Roboto,'Helvetica Neue',Arial,'Apple SD Gothic Neo','Noto Sans KR','Malgun Gothic',sans-serif" font-size="22.95" font-weight="700" text-anchor="middle" fill="#1f2328">RDS MySQL</text>
<text x="1330" y="1611.2" font-family="ui-sans-serif,-apple-system,'Segoe UI',Roboto,'Helvetica Neue',Arial,'Apple SD Gothic Neo','Noto Sans KR','Malgun Gothic',sans-serif" font-size="19.55" font-weight="400" text-anchor="middle" fill="#59636e">Standby · 대기 전용</text>
<svg x="1470.0" y="1250.0" width="60" height="60" viewBox="0 0 48 48" overflow="visible"><path fill="#8c4fff" fill-rule="evenodd" d="M24.002 25.439A1.188 1.188 0 1 1 24 27.814a1.188 1.188 0 0 1 .002-2.375m-1 4.198v3.054h2v-3.055a3.18 3.18 0 0 0 2.188-3.01A3.19 3.19 0 0 0 24 23.438a3.19 3.19 0 0 0-3.187 3.186 3.18 3.18 0 0 0 2.188 3.012m1 14.365c-11.03 0-20.002-8.973-20.002-20C4 12.972 12.973 4 24.002 4s20 8.971 20 20-8.973 20-20 20m0-42.001C11.87 2 2 11.87 2 24s9.87 22 22.002 22 22-9.868 22-22-9.869-22-22-22m8.618 32.376-17.244-.008.005-12.869 17.246.008zm-12.865-18.28a4.44 4.44 0 0 1 1.265-3.113 4.16 4.16 0 0 1 2.988-1.267h.015a4.1 4.1 0 0 1 2.976 1.292 4.5 4.5 0 0 1 1.236 3.14v3.357l-8.497-.003zm13.872 3.41h-3.393V16.15a6.47 6.47 0 0 0-1.79-4.523 6.1 6.1 0 0 0-4.416-1.912h-.02a6.14 6.14 0 0 0-4.416 1.869 6.43 6.43 0 0 0-1.837 4.503l-.017 3.413h-3.357a1 1 0 0 0-1 1l-.005 14.869a1 1 0 0 0 1 1l19.244.007a1 1 0 0 0 1-1l.007-14.87a1 1 0 0 0-1-1"/></svg>
<text x="1500" y="1340.6" font-family="ui-sans-serif,-apple-system,'Segoe UI',Roboto,'Helvetica Neue',Arial,'Apple SD Gothic Neo','Noto Sans KR','Malgun Gothic',sans-serif" font-size="22.95" font-weight="700" text-anchor="middle" fill="#1f2328"></text>
<svg x="1760.0" y="1250.0" width="60" height="60" viewBox="0 0 48 48" overflow="visible"><path fill="#8c4fff" fill-rule="evenodd" d="m42.208 24.707-4.375 4.375-1.414-1.414L39.087 25H25v14.086l2.668-2.668 1.414 1.414-4.375 4.375a.997.997 0 0 1-1.414 0l-4.375-4.375 1.414-1.414L23 39.086V25H8.915l2.668 2.668-1.414 1.414-4.375-4.375a1 1 0 0 1 0-1.414l4.375-4.376 1.414 1.414L8.915 23H23V8.913l-2.668 2.668-1.414-1.414 4.375-4.375a1 1 0 0 1 1.414 0l4.375 4.375-1.414 1.414L25 8.913V23h14.087l-2.668-2.669 1.414-1.414 4.375 4.376a1 1 0 0 1 0 1.414M24 44C12.972 44 4 35.028 4 24S12.972 4 24 4s20 8.972 20 20-8.972 20-20 20m0-42C11.87 2 2 11.869 2 24s9.87 22 22 22 22-9.869 22-22S36.131 2 24 2"/></svg>
<text x="1790" y="1340.6" font-family="ui-sans-serif,-apple-system,'Segoe UI',Roboto,'Helvetica Neue',Arial,'Apple SD Gothic Neo','Noto Sans KR','Malgun Gothic',sans-serif" font-size="22.95" font-weight="700" text-anchor="middle" fill="#1f2328"></text>
<svg x="2255.0" y="860.0" width="60" height="60" viewBox="0 0 24 24" overflow="visible"><g fill="#009639"><path d="M12 0L1.605 6v12L12 24l10.395-6V6L12 0zm6 16.59c0 .705-.646 1.29-1.529 1.29-.631 0-1.351-.255-1.801-.81l-6-7.141v6.66c0 .721-.57 1.29-1.274 1.29H7.32c-.721 0-1.29-.6-1.29-1.29V7.41c0-.705.63-1.29 1.5-1.29.646 0 1.38.255 1.83.81l5.97 7.141V7.41c0-.721.6-1.29 1.29-1.29h.075c.72 0 1.29.6 1.29 1.29v9.18H18z"/></g></svg>
<text x="2285" y="950.6" font-family="ui-sans-serif,-apple-system,'Segoe UI',Roboto,'Helvetica Neue',Arial,'Apple SD Gothic Neo','Noto Sans KR','Malgun Gothic',sans-serif" font-size="22.95" font-weight="700" text-anchor="middle" fill="#1f2328">Nginx</text>
<text x="2285" y="981.2" font-family="ui-sans-serif,-apple-system,'Segoe UI',Roboto,'Helvetica Neue',Arial,'Apple SD Gothic Neo','Noto Sans KR','Malgun Gothic',sans-serif" font-size="19.55" font-weight="400" text-anchor="middle" fill="#59636e">HTTPS 종료</text>
<rect x="1940.0" y="1080.0" width="60" height="60" rx="8" fill="#8250df"/>
<text x="1970" y="1118.5" font-family="ui-sans-serif,-apple-system,'Segoe UI',Roboto,'Helvetica Neue',Arial,'Apple SD Gothic Neo','Noto Sans KR','Malgun Gothic',sans-serif" font-size="22.099999999999998" font-weight="700" text-anchor="middle" fill="#ffffff">대외</text>
<text x="1970" y="1170.6" font-family="ui-sans-serif,-apple-system,'Segoe UI',Roboto,'Helvetica Neue',Arial,'Apple SD Gothic Neo','Noto Sans KR','Malgun Gothic',sans-serif" font-size="22.95" font-weight="700" text-anchor="middle" fill="#1f2328">모의 대외기관</text>
<text x="1970" y="1201.2" font-family="ui-sans-serif,-apple-system,'Segoe UI',Roboto,'Helvetica Neue',Arial,'Apple SD Gothic Neo','Noto Sans KR','Malgun Gothic',sans-serif" font-size="19.55" font-weight="400" text-anchor="middle" fill="#59636e">타행 · 고정길이 전문</text>
<svg x="2160.0" y="1080.0" width="60" height="60" viewBox="0 0 24 24" overflow="visible"><g fill="#6DB33F"><path d="M21.8537 1.4158a10.4504 10.4504 0 0 1-1.284 2.2471A11.9666 11.9666 0 1 0 3.8518 20.7757l.4445.3951a11.9543 11.9543 0 0 0 19.6316-8.2971c.3457-3.0126-.568-6.8649-2.0743-11.458zM5.5805 20.8745a1.0174 1.0174 0 1 1-.1482-1.4323 1.0396 1.0396 0 0 1 .1482 1.4323zm16.1991-3.5806c-2.9385 3.9263-9.2601 2.5928-13.2852 2.7904 0 0-.7161.0494-1.4323.1481 0 0 .2717-.1234.6174-.2469 2.8398-.9877 4.1732-1.1853 5.9018-2.0743 3.2349-1.6545 6.4698-5.2844 7.1118-9.0379-1.2347 3.6053-4.9881 6.7167-8.3959 7.9761-2.3459.8643-6.5685 1.7039-6.5685 1.7039l-.1729-.0988c-2.8645-1.4076-2.9632-7.6304 2.2718-9.6306 2.2966-.889 4.4696-.395 6.9637-.9877 2.6422-.6174 5.7043-2.5929 6.939-5.1857 1.3828 4.1732 3.062 10.643.0493 14.6434z"/></g></svg>
<text x="2190" y="1170.6" font-family="ui-sans-serif,-apple-system,'Segoe UI',Roboto,'Helvetica Neue',Arial,'Apple SD Gothic Neo','Noto Sans KR','Malgun Gothic',sans-serif" font-size="22.95" font-weight="700" text-anchor="middle" fill="#1f2328">계정계 API</text>
<text x="2190" y="1201.2" font-family="ui-sans-serif,-apple-system,'Segoe UI',Roboto,'Helvetica Neue',Arial,'Apple SD Gothic Neo','Noto Sans KR','Malgun Gothic',sans-serif" font-size="19.55" font-weight="400" text-anchor="middle" fill="#59636e">대기</text>
<text x="2190" y="1226.7" font-family="ui-sans-serif,-apple-system,'Segoe UI',Roboto,'Helvetica Neue',Arial,'Apple SD Gothic Neo','Noto Sans KR','Malgun Gothic',sans-serif" font-size="19.55" font-weight="400" text-anchor="middle" fill="#59636e">전환 시 기동</text>
<svg x="2350.0" y="1080.0" width="60" height="60" viewBox="0 0 24 24" overflow="visible"><g fill="#6DB33F"><path d="M21.8537 1.4158a10.4504 10.4504 0 0 1-1.284 2.2471A11.9666 11.9666 0 1 0 3.8518 20.7757l.4445.3951a11.9543 11.9543 0 0 0 19.6316-8.2971c.3457-3.0126-.568-6.8649-2.0743-11.458zM5.5805 20.8745a1.0174 1.0174 0 1 1-.1482-1.4323 1.0396 1.0396 0 0 1 .1482 1.4323zm16.1991-3.5806c-2.9385 3.9263-9.2601 2.5928-13.2852 2.7904 0 0-.7161.0494-1.4323.1481 0 0 .2717-.1234.6174-.2469 2.8398-.9877 4.1732-1.1853 5.9018-2.0743 3.2349-1.6545 6.4698-5.2844 7.1118-9.0379-1.2347 3.6053-4.9881 6.7167-8.3959 7.9761-2.3459.8643-6.5685 1.7039-6.5685 1.7039l-.1729-.0988c-2.8645-1.4076-2.9632-7.6304 2.2718-9.6306 2.2966-.889 4.4696-.395 6.9637-.9877 2.6422-.6174 5.7043-2.5929 6.939-5.1857 1.3828 4.1732 3.062 10.643.0493 14.6434z"/></g></svg>
<text x="2380" y="1170.6" font-family="ui-sans-serif,-apple-system,'Segoe UI',Roboto,'Helvetica Neue',Arial,'Apple SD Gothic Neo','Noto Sans KR','Malgun Gothic',sans-serif" font-size="22.95" font-weight="700" text-anchor="middle" fill="#1f2328">정보계 API</text>
<text x="2380" y="1201.2" font-family="ui-sans-serif,-apple-system,'Segoe UI',Roboto,'Helvetica Neue',Arial,'Apple SD Gothic Neo','Noto Sans KR','Malgun Gothic',sans-serif" font-size="19.55" font-weight="400" text-anchor="middle" fill="#59636e">Spring Boot</text>
<text x="2380" y="1226.7" font-family="ui-sans-serif,-apple-system,'Segoe UI',Roboto,'Helvetica Neue',Arial,'Apple SD Gothic Neo','Noto Sans KR','Malgun Gothic',sans-serif" font-size="19.55" font-weight="400" text-anchor="middle" fill="#59636e">상시</text>
<svg x="1940.0" y="1250.0" width="60" height="60" viewBox="0 0 24 24" overflow="visible"><g fill="#E6522C"><path d="M12 0C5.373 0 0 5.372 0 12c0 6.627 5.373 12 12 12s12-5.373 12-12c0-6.628-5.373-12-12-12zm0 22.46c-1.885 0-3.414-1.26-3.414-2.814h6.828c0 1.553-1.528 2.813-3.414 2.813zm5.64-3.745H6.36v-2.046h11.28v2.046zm-.04-3.098H6.391c-.037-.043-.075-.086-.111-.13-1.155-1.401-1.427-2.133-1.69-2.879-.005-.025 1.4.287 2.395.511 0 0 .513.119 1.262.255-.72-.843-1.147-1.915-1.147-3.01 0-2.406 1.845-4.508 1.18-6.207.648.053 1.34 1.367 1.387 3.422.689-.951.977-2.69.977-3.755 0-1.103.727-2.385 1.454-2.429-.648 1.069.168 1.984.894 4.256.272.854.237 2.29.447 3.201.07-1.892.395-4.652 1.595-5.605-.529 1.2.079 2.702.494 3.424.671 1.164 1.078 2.047 1.078 3.716a4.642 4.642 0 01-1.11 2.996c.792-.149 1.34-.283 1.34-.283l2.573-.502s-.374 1.538-1.81 3.019z"/></g></svg>
<circle cx="2000.0" cy="1250.0" r="16.25" fill="#ffffff" stroke="#d1d9e0"/>
<svg x="1988.625" y="1238.625" width="22.75" height="22.75" viewBox="0 0 24 24" overflow="visible"><g fill="#F46800"><path d="M23.02 10.59a8.578 8.578 0 0 0-.862-3.034 8.911 8.911 0 0 0-1.789-2.445c.337-1.342-.413-2.505-.413-2.505-1.292-.08-2.113.4-2.416.62-.052-.02-.102-.044-.154-.064-.22-.089-.446-.172-.677-.247-.231-.073-.47-.14-.711-.197a9.867 9.867 0 0 0-.875-.161C14.557.753 12.94 0 12.94 0c-1.804 1.145-2.147 2.744-2.147 2.744l-.018.093c-.098.029-.2.057-.298.088-.138.042-.275.094-.413.143-.138.055-.275.107-.41.166a8.869 8.869 0 0 0-1.557.87l-.063-.029c-2.497-.955-4.716.195-4.716.195-.203 2.658.996 4.33 1.235 4.636a11.608 11.608 0 0 0-.607 2.635C1.636 12.677.953 15.014.953 15.014c1.926 2.214 4.171 2.351 4.171 2.351.003-.002.006-.002.006-.005.285.509.615.994.986 1.446.156.19.32.371.488.548-.704 2.009.099 3.68.099 3.68 2.144.08 3.553-.937 3.849-1.173a9.784 9.784 0 0 0 3.164.501h.08l.055-.003.107-.002.103-.005.003.002c1.01 1.44 2.788 1.646 2.788 1.646 1.264-1.332 1.337-2.653 1.337-2.94v-.058c0-.02-.003-.039-.003-.06.265-.187.52-.387.758-.6a7.875 7.875 0 0 0 1.415-1.7c1.43.083 2.437-.885 2.437-.885-.236-1.49-1.085-2.216-1.264-2.354l-.018-.013-.016-.013a.217.217 0 0 1-.031-.02c.008-.092.016-.18.02-.27.011-.162.016-.323.016-.48v-.253l-.005-.098-.008-.135a1.891 1.891 0 0 0-.01-.13c-.003-.042-.008-.083-.013-.125l-.016-.124-.018-.122a6.215 6.215 0 0 0-2.032-3.73 6.015 6.015 0 0 0-3.222-1.46 6.292 6.292 0 0 0-.85-.048l-.107.002h-.063l-.044.003-.104.008a4.777 4.777 0 0 0-3.335 1.695c-.332.4-.592.84-.768 1.297a4.594 4.594 0 0 0-.312 1.817l.003.091c.005.055.007.11.013.164a3.615 3.615 0 0 0 .698 1.82 3.53 3.53 0 0 0 1.827 1.282c.33.098.66.14.971.137.039 0 .078 0 .114-.002l.063-.003c.02 0 .041-.003.062-.003.034-.002.065-.007.099-.01.007 0 .018-.003.028-.003l.031-.005.06-.008a1.18 1.18 0 0 0 .112-.02c.036-.008.072-.013.109-.024a2.634 2.634 0 0 0 .914-.415c.028-.02.056-.041.085-.065a.248.248 0 0 0 .039-.35.244.244 0 0 0-.309-.06l-.078.042c-.09.044-.184.083-.283.116a2.476 2.476 0 0 1-.475.096c-.028.003-.054.006-.083.006l-.083.002c-.026 0-.054 0-.08-.002l-.102-.006h-.012l-.024.006c-.016-.003-.031-.003-.044-.006-.031-.002-.06-.007-.091-.01a2.59 2.59 0 0 1-.724-.213 2.557 2.557 0 0 1-.667-.438 2.52 2.52 0 0 1-.805-1.475 2.306 2.306 0 0 1-.029-.444l.006-.122v-.023l.002-.031c.003-.021.003-.04.005-.06a3.163 3.163 0 0 1 1.352-2.29 3.12 3.12 0 0 1 .937-.43 2.946 2.946 0 0 1 .776-.101h.06l.07.002.045.003h.026l.07.005a4.041 4.041 0 0 1 1.635.49 3.94 3.94 0 0 1 1.602 1.662 3.77 3.77 0 0 1 .397 1.414l.005.076.003.075c.002.026.002.05.002.075 0 .024.003.052 0 .07v.065l-.002.073-.008.174a6.195 6.195 0 0 1-.08.639 5.1 5.1 0 0 1-.267.927 5.31 5.31 0 0 1-.624 1.13 5.052 5.052 0 0 1-3.237 2.014 4.82 4.82 0 0 1-.649.066l-.039.003h-.287a6.607 6.607 0 0 1-1.716-.265 6.776 6.776 0 0 1-3.4-2.274 6.75 6.75 0 0 1-.746-1.15 6.616 6.616 0 0 1-.714-2.596l-.005-.083-.002-.02v-.056l-.003-.073v-.096l-.003-.104v-.07l.003-.163c.008-.22.026-.45.054-.678a8.707 8.707 0 0 1 .28-1.355c.128-.444.286-.872.473-1.277a7.04 7.04 0 0 1 1.456-2.1 5.925 5.925 0 0 1 .953-.763c.169-.111.343-.213.524-.306.089-.05.182-.091.273-.135.047-.02.093-.042.138-.062a7.177 7.177 0 0 1 .714-.267l.145-.045c.049-.015.098-.026.148-.041.098-.029.197-.052.296-.076.049-.013.1-.02.15-.033l.15-.032.151-.028.076-.013.075-.01.153-.024c.057-.01.114-.013.171-.023l.169-.021c.036-.003.073-.008.106-.01l.073-.008.036-.003.042-.002c.057-.003.114-.008.171-.01l.086-.006h.023l.037-.003.145-.007a7.999 7.999 0 0 1 1.708.125 7.917 7.917 0 0 1 2.048.68 8.253 8.253 0 0 1 1.672 1.09l.09.077.089.078c.06.052.114.107.171.159.057.052.112.106.166.16.052.055.107.107.159.164a8.671 8.671 0 0 1 1.41 1.978c.012.026.028.052.04.078l.04.078.075.156c.023.051.05.1.07.153l.065.15a8.848 8.848 0 0 1 .45 1.34.19.19 0 0 0 .201.142.186.186 0 0 0 .172-.184c.01-.246.002-.532-.024-.856z"/></g></svg>
<text x="1970" y="1340.6" font-family="ui-sans-serif,-apple-system,'Segoe UI',Roboto,'Helvetica Neue',Arial,'Apple SD Gothic Neo','Noto Sans KR','Malgun Gothic',sans-serif" font-size="22.95" font-weight="700" text-anchor="middle" fill="#1f2328">모니터링</text>
<text x="1970" y="1371.2" font-family="ui-sans-serif,-apple-system,'Segoe UI',Roboto,'Helvetica Neue',Arial,'Apple SD Gothic Neo','Noto Sans KR','Malgun Gothic',sans-serif" font-size="19.55" font-weight="400" text-anchor="middle" fill="#59636e">Prometheus</text>
<text x="1970" y="1396.7" font-family="ui-sans-serif,-apple-system,'Segoe UI',Roboto,'Helvetica Neue',Arial,'Apple SD Gothic Neo','Noto Sans KR','Malgun Gothic',sans-serif" font-size="19.55" font-weight="400" text-anchor="middle" fill="#59636e">Grafana</text>
<svg x="2160.0" y="1490.0" width="60" height="60" viewBox="0 0 24 24" overflow="visible"><g fill="#4479A1"><path d="M16.405 5.501c-.115 0-.193.014-.274.033v.013h.014c.054.104.146.18.214.273.054.107.1.214.154.32l.014-.015c.094-.066.14-.172.14-.333-.04-.047-.046-.094-.08-.14-.04-.067-.126-.1-.18-.153zM5.77 18.695h-.927a50.854 50.854 0 00-.27-4.41h-.008l-1.41 4.41H2.45l-1.4-4.41h-.01a72.892 72.892 0 00-.195 4.41H0c.055-1.966.192-3.81.41-5.53h1.15l1.335 4.064h.008l1.347-4.064h1.095c.242 2.015.384 3.86.428 5.53zm4.017-4.08c-.378 2.045-.876 3.533-1.492 4.46-.482.716-1.01 1.073-1.583 1.073-.153 0-.34-.046-.566-.138v-.494c.11.017.24.026.386.026.268 0 .483-.075.647-.222.197-.18.295-.382.295-.605 0-.155-.077-.47-.23-.944L6.23 14.615h.91l.727 2.36c.164.536.233.91.205 1.123.4-1.064.678-2.227.835-3.483zm12.325 4.08h-2.63v-5.53h.885v4.85h1.745zm-3.32.135l-1.016-.5c.09-.076.177-.158.255-.25.433-.506.648-1.258.648-2.253 0-1.83-.718-2.746-2.155-2.746-.704 0-1.254.232-1.65.697-.43.508-.646 1.256-.646 2.245 0 .972.19 1.686.574 2.14.35.41.877.615 1.583.615.264 0 .506-.033.725-.098l1.325.772.36-.622zM15.5 17.588c-.225-.36-.337-.94-.337-1.736 0-1.393.424-2.09 1.27-2.09.443 0 .77.167.977.5.224.362.336.936.336 1.723 0 1.404-.424 2.108-1.27 2.108-.445 0-.77-.167-.978-.5zm-1.658-.425c0 .47-.172.856-.516 1.156-.344.3-.803.45-1.384.45-.543 0-1.064-.172-1.573-.515l.237-.476c.438.22.833.328 1.19.328.332 0 .593-.073.783-.22a.754.754 0 00.3-.615c0-.33-.23-.61-.648-.845-.388-.213-1.163-.657-1.163-.657-.422-.307-.632-.636-.632-1.177 0-.45.157-.81.47-1.085.315-.278.72-.415 1.22-.415.512 0 .98.136 1.4.41l-.213.476a2.726 2.726 0 00-1.064-.23c-.283 0-.502.068-.654.206a.685.685 0 00-.248.524c0 .328.234.61.666.85.393.215 1.187.67 1.187.67.433.305.648.63.648 1.168zm9.382-5.852c-.535-.014-.95.04-1.297.188-.1.04-.26.04-.274.167.055.053.063.14.11.214.08.134.218.313.346.407.14.11.28.216.427.31.26.16.555.255.81.416.145.094.293.213.44.313.073.05.12.14.214.172v-.02c-.046-.06-.06-.147-.105-.214-.067-.067-.134-.127-.2-.193a3.223 3.223 0 00-.695-.675c-.214-.146-.682-.35-.77-.595l-.013-.014c.146-.013.32-.066.46-.106.227-.06.435-.047.67-.106.106-.027.213-.06.32-.094v-.06c-.12-.12-.21-.283-.334-.395a8.867 8.867 0 00-1.104-.823c-.21-.134-.476-.22-.697-.334-.08-.04-.214-.06-.26-.127-.12-.146-.19-.34-.275-.514a17.69 17.69 0 01-.547-1.163c-.12-.262-.193-.523-.34-.763-.69-1.137-1.437-1.826-2.586-2.5-.247-.14-.543-.2-.856-.274-.167-.008-.334-.02-.5-.027-.11-.047-.216-.174-.31-.235-.38-.24-1.364-.76-1.644-.072-.18.434.267.862.422 1.082.115.153.26.328.34.5.047.116.06.235.107.356.106.294.207.622.347.897.073.14.153.287.247.413.054.073.146.107.167.227-.094.136-.1.334-.154.5-.24.757-.146 1.693.194 2.25.107.166.362.534.703.393.3-.12.234-.5.32-.835.02-.08.007-.133.048-.187v.015c.094.188.188.367.274.555.206.328.566.668.867.895.16.12.287.328.487.402v-.02h-.015c-.043-.058-.1-.086-.154-.133a3.445 3.445 0 01-.35-.4 8.76 8.76 0 01-.747-1.218c-.11-.21-.202-.436-.29-.643-.04-.08-.04-.2-.107-.24-.1.146-.247.273-.32.453-.127.288-.14.642-.188 1.01-.027.007-.014 0-.027.014-.214-.052-.287-.274-.367-.46-.2-.475-.233-1.238-.06-1.785.047-.14.247-.582.167-.716-.042-.127-.174-.2-.247-.303a2.478 2.478 0 01-.24-.427c-.16-.374-.24-.788-.414-1.162-.08-.173-.22-.354-.334-.513-.127-.18-.267-.307-.368-.52-.033-.073-.08-.194-.027-.274.014-.054.042-.075.094-.09.088-.072.335.022.422.062.247.1.455.194.662.334.094.066.195.193.315.226h.14c.214.047.455.014.655.073.355.114.675.28.962.46a5.953 5.953 0 012.085 2.286c.08.154.115.295.188.455.14.33.313.663.455.982.14.315.275.636.476.897.1.14.502.213.682.286.133.06.34.115.46.188.23.14.454.3.67.454.11.076.443.243.463.378z"/></g></svg>
<text x="2190" y="1580.6" font-family="ui-sans-serif,-apple-system,'Segoe UI',Roboto,'Helvetica Neue',Arial,'Apple SD Gothic Neo','Noto Sans KR','Malgun Gothic',sans-serif" font-size="22.95" font-weight="700" text-anchor="middle" fill="#1f2328">MySQL 레플리카</text>
<text x="2190" y="1611.2" font-family="ui-sans-serif,-apple-system,'Segoe UI',Roboto,'Helvetica Neue',Arial,'Apple SD Gothic Neo','Noto Sans KR','Malgun Gothic',sans-serif" font-size="19.55" font-weight="400" text-anchor="middle" fill="#59636e">binlog 복제</text>
<svg x="2350.0" y="1490.0" width="60" height="60" viewBox="0 0 24 24" overflow="visible"><g fill="#4479A1"><path d="M16.405 5.501c-.115 0-.193.014-.274.033v.013h.014c.054.104.146.18.214.273.054.107.1.214.154.32l.014-.015c.094-.066.14-.172.14-.333-.04-.047-.046-.094-.08-.14-.04-.067-.126-.1-.18-.153zM5.77 18.695h-.927a50.854 50.854 0 00-.27-4.41h-.008l-1.41 4.41H2.45l-1.4-4.41h-.01a72.892 72.892 0 00-.195 4.41H0c.055-1.966.192-3.81.41-5.53h1.15l1.335 4.064h.008l1.347-4.064h1.095c.242 2.015.384 3.86.428 5.53zm4.017-4.08c-.378 2.045-.876 3.533-1.492 4.46-.482.716-1.01 1.073-1.583 1.073-.153 0-.34-.046-.566-.138v-.494c.11.017.24.026.386.026.268 0 .483-.075.647-.222.197-.18.295-.382.295-.605 0-.155-.077-.47-.23-.944L6.23 14.615h.91l.727 2.36c.164.536.233.91.205 1.123.4-1.064.678-2.227.835-3.483zm12.325 4.08h-2.63v-5.53h.885v4.85h1.745zm-3.32.135l-1.016-.5c.09-.076.177-.158.255-.25.433-.506.648-1.258.648-2.253 0-1.83-.718-2.746-2.155-2.746-.704 0-1.254.232-1.65.697-.43.508-.646 1.256-.646 2.245 0 .972.19 1.686.574 2.14.35.41.877.615 1.583.615.264 0 .506-.033.725-.098l1.325.772.36-.622zM15.5 17.588c-.225-.36-.337-.94-.337-1.736 0-1.393.424-2.09 1.27-2.09.443 0 .77.167.977.5.224.362.336.936.336 1.723 0 1.404-.424 2.108-1.27 2.108-.445 0-.77-.167-.978-.5zm-1.658-.425c0 .47-.172.856-.516 1.156-.344.3-.803.45-1.384.45-.543 0-1.064-.172-1.573-.515l.237-.476c.438.22.833.328 1.19.328.332 0 .593-.073.783-.22a.754.754 0 00.3-.615c0-.33-.23-.61-.648-.845-.388-.213-1.163-.657-1.163-.657-.422-.307-.632-.636-.632-1.177 0-.45.157-.81.47-1.085.315-.278.72-.415 1.22-.415.512 0 .98.136 1.4.41l-.213.476a2.726 2.726 0 00-1.064-.23c-.283 0-.502.068-.654.206a.685.685 0 00-.248.524c0 .328.234.61.666.85.393.215 1.187.67 1.187.67.433.305.648.63.648 1.168zm9.382-5.852c-.535-.014-.95.04-1.297.188-.1.04-.26.04-.274.167.055.053.063.14.11.214.08.134.218.313.346.407.14.11.28.216.427.31.26.16.555.255.81.416.145.094.293.213.44.313.073.05.12.14.214.172v-.02c-.046-.06-.06-.147-.105-.214-.067-.067-.134-.127-.2-.193a3.223 3.223 0 00-.695-.675c-.214-.146-.682-.35-.77-.595l-.013-.014c.146-.013.32-.066.46-.106.227-.06.435-.047.67-.106.106-.027.213-.06.32-.094v-.06c-.12-.12-.21-.283-.334-.395a8.867 8.867 0 00-1.104-.823c-.21-.134-.476-.22-.697-.334-.08-.04-.214-.06-.26-.127-.12-.146-.19-.34-.275-.514a17.69 17.69 0 01-.547-1.163c-.12-.262-.193-.523-.34-.763-.69-1.137-1.437-1.826-2.586-2.5-.247-.14-.543-.2-.856-.274-.167-.008-.334-.02-.5-.027-.11-.047-.216-.174-.31-.235-.38-.24-1.364-.76-1.644-.072-.18.434.267.862.422 1.082.115.153.26.328.34.5.047.116.06.235.107.356.106.294.207.622.347.897.073.14.153.287.247.413.054.073.146.107.167.227-.094.136-.1.334-.154.5-.24.757-.146 1.693.194 2.25.107.166.362.534.703.393.3-.12.234-.5.32-.835.02-.08.007-.133.048-.187v.015c.094.188.188.367.274.555.206.328.566.668.867.895.16.12.287.328.487.402v-.02h-.015c-.043-.058-.1-.086-.154-.133a3.445 3.445 0 01-.35-.4 8.76 8.76 0 01-.747-1.218c-.11-.21-.202-.436-.29-.643-.04-.08-.04-.2-.107-.24-.1.146-.247.273-.32.453-.127.288-.14.642-.188 1.01-.027.007-.014 0-.027.014-.214-.052-.287-.274-.367-.46-.2-.475-.233-1.238-.06-1.785.047-.14.247-.582.167-.716-.042-.127-.174-.2-.247-.303a2.478 2.478 0 01-.24-.427c-.16-.374-.24-.788-.414-1.162-.08-.173-.22-.354-.334-.513-.127-.18-.267-.307-.368-.52-.033-.073-.08-.194-.027-.274.014-.054.042-.075.094-.09.088-.072.335.022.422.062.247.1.455.194.662.334.094.066.195.193.315.226h.14c.214.047.455.014.655.073.355.114.675.28.962.46a5.953 5.953 0 012.085 2.286c.08.154.115.295.188.455.14.33.313.663.455.982.14.315.275.636.476.897.1.14.502.213.682.286.133.06.34.115.46.188.23.14.454.3.67.454.11.076.443.243.463.378z"/></g></svg>
<text x="2380" y="1580.6" font-family="ui-sans-serif,-apple-system,'Segoe UI',Roboto,'Helvetica Neue',Arial,'Apple SD Gothic Neo','Noto Sans KR','Malgun Gothic',sans-serif" font-size="22.95" font-weight="700" text-anchor="middle" fill="#1f2328">정보계 마트</text>
<text x="2380" y="1611.2" font-family="ui-sans-serif,-apple-system,'Segoe UI',Roboto,'Helvetica Neue',Arial,'Apple SD Gothic Neo','Noto Sans KR','Malgun Gothic',sans-serif" font-size="19.55" font-weight="400" text-anchor="middle" fill="#59636e">COB 후 적재</text>
<text x="2380" y="1636.7" font-family="ui-sans-serif,-apple-system,'Segoe UI',Roboto,'Helvetica Neue',Arial,'Apple SD Gothic Neo','Noto Sans KR','Malgun Gothic',sans-serif" font-size="19.55" font-weight="400" text-anchor="middle" fill="#59636e">PII 없음</text>
<rect x="1878.0" y="30" width="612.0" height="255.0" rx="8" fill="#ffffff" stroke="#d1d9e0"/>
<text x="1890.0" y="64.0" font-family="ui-sans-serif,-apple-system,'Segoe UI',Roboto,'Helvetica Neue',Arial,'Apple SD Gothic Neo','Noto Sans KR','Malgun Gothic',sans-serif" font-size="21.25" font-weight="700" text-anchor="start" fill="#1f2328">범례</text>
<path d="M1892.0 94.6 H 1986.8" stroke="#DD344C" stroke-width="2" marker-end="url(#m-flow)"/>
<text x="2007.2" y="101.39999999999999" font-family="ui-sans-serif,-apple-system,'Segoe UI',Roboto,'Helvetica Neue',Arial,'Apple SD Gothic Neo','Noto Sans KR','Malgun Gothic',sans-serif" font-size="20.4" font-weight="400" text-anchor="start" fill="#1f2328">Request (HTTP/TCP)</text>
<path d="M1892.0 135.39999999999998 H 1986.8" stroke="#C925D1" stroke-width="2" marker-end="url(#m-data)"/>
<text x="2007.2" y="142.2" font-family="ui-sans-serif,-apple-system,'Segoe UI',Roboto,'Helvetica Neue',Arial,'Apple SD Gothic Neo','Noto Sans KR','Malgun Gothic',sans-serif" font-size="20.4" font-weight="400" text-anchor="start" fill="#1f2328">Replication · ETL</text>
<path d="M1892.0 176.2 H 1986.8" stroke="#6e7781" stroke-width="2" marker-end="url(#m-neutral)"/>
<text x="2007.2" y="183.0" font-family="ui-sans-serif,-apple-system,'Segoe UI',Roboto,'Helvetica Neue',Arial,'Apple SD Gothic Neo','Noto Sans KR','Malgun Gothic',sans-serif" font-size="20.4" font-weight="400" text-anchor="start" fill="#1f2328">External TCP (전문) · Egress</text>
<path d="M1892.0 216.99999999999997 H 1986.8" stroke="#6e7781" stroke-width="2" marker-end="url(#m-neutral)" stroke-dasharray="6 4"/>
<text x="2007.2" y="223.79999999999998" font-family="ui-sans-serif,-apple-system,'Segoe UI',Roboto,'Helvetica Neue',Arial,'Apple SD Gothic Neo','Noto Sans KR','Malgun Gothic',sans-serif" font-size="20.4" font-weight="400" text-anchor="start" fill="#1f2328">Metrics scrape · Failover path</text>
<path d="M1892.0 257.8 H 1986.8" stroke="#0969da" stroke-width="2" marker-end="url(#m-ops)"/>
<text x="2007.2" y="264.6" font-family="ui-sans-serif,-apple-system,'Segoe UI',Roboto,'Helvetica Neue',Arial,'Apple SD Gothic Neo','Noto Sans KR','Malgun Gothic',sans-serif" font-size="20.4" font-weight="400" text-anchor="start" fill="#1f2328">Deploy (CI/CD)</text>
</svg>